<svg xmlns="http://www.w3.org/2000/svg" width="500" height="500" viewBox="0 0 500 500">
  <defs>
    <style>
      .cls-1 {
        fill-rule: evenodd;
      }
    </style>
  </defs>
  <path id="_" data-name="ï¸" class="cls-1" d="M364.133,237.863q7.559-19.733,7.559-37.371,0-31.9-26.034-62.564-25.615-24.769-51.226-49.547Q264.612,59,259.161,34.215H247.824V360.891q-12.185-12.6-34.431-12.6-26.04,0-51.227,16.8-18.9,12.185-29.812,29.183t-10.918,33.381a37.486,37.486,0,0,0,5.879,20.575q11.751,17.636,39.05,17.635,25.606,0,50.807-16.375,18.894-12.6,29.812-29.393T257.9,387.344V197.133q47.022,14.7,70.542,29.392,37.79,23.934,39.469,57.106,0.837,25.192-7.138,41.149Q355.313,336.54,336,357.951l4.619,4.619q22.251-25.193,28.132-36.53,9.654-18.05,9.238-45.768-0.423-22.251-13.857-42.409h0Zm-41.477-43.669q-30.9-26.867-41.051-38.21Q261.283,133.733,257.9,114q106.226,37.789,106.232,94.055a67.893,67.893,0,0,1-4.231,23.094q-10.59-13.433-37.246-36.95h0Z"/>
</svg>
