<?xml version="1.0" encoding="UTF-8" standalone="no"?>
<!-- Created with Inkscape (http://www.inkscape.org/) -->

<svg
   xmlns:dc="http://purl.org/dc/elements/1.1/"
   xmlns:cc="http://creativecommons.org/ns#"
   xmlns:rdf="http://www.w3.org/1999/02/22-rdf-syntax-ns#"
   xmlns:svg="http://www.w3.org/2000/svg"
   xmlns="http://www.w3.org/2000/svg"
   xmlns:sodipodi="http://sodipodi.sourceforge.net/DTD/sodipodi-0.dtd"
   xmlns:inkscape="http://www.inkscape.org/namespaces/inkscape"
   width="500"
   height="500"
   id="svg3088"
   version="1.1"
   inkscape:version="0.48.5 r10040"
   sodipodi:docname="sixty-fourth note.svg"
   inkscape:export-filename="C:\Users\ema\Desktop\sixty-fourth note.png"
   inkscape:export-xdpi="90"
   inkscape:export-ydpi="90">
  <defs
     id="defs3090" />
  <sodipodi:namedview
     id="base"
     pagecolor="#ffffff"
     bordercolor="#666666"
     borderopacity="1.0"
     inkscape:pageopacity="0.0"
     inkscape:pageshadow="2"
     inkscape:zoom="1.07"
     inkscape:cx="379.43925"
     inkscape:cy="250"
     inkscape:current-layer="layer1"
     inkscape:document-units="px"
     showgrid="false"
     inkscape:window-width="1102"
     inkscape:window-height="765"
     inkscape:window-x="1821"
     inkscape:window-y="180"
     inkscape:window-maximized="0" />
  <metadata
     id="metadata3093">
    <rdf:RDF>
      <cc:Work
         rdf:about="">
        <dc:format>image/svg+xml</dc:format>
        <dc:type
           rdf:resource="http://purl.org/dc/dcmitype/StillImage" />
        <dc:title></dc:title>
      </cc:Work>
    </rdf:RDF>
  </metadata>
  <g
     id="layer1"
     inkscape:label="Layer 1"
     inkscape:groupmode="layer"
     transform="translate(0,20)">
    <g
       id="g3188"
       style="fill:#000000"
       transform="matrix(6.7100586,0,0,6.7100586,3251.1689,-1663.9644)">
      <path
         transform="matrix(1.624072,-1.0478118,0.73346832,1.1368505,-565.70653,350.89312)"
         d="m 65,20.900009 c 0,2.761424 -2.238576,5 -5,5 -2.761424,0 -5,-2.238576 -5,-5 0,-2.761424 2.238576,-5 5,-5 2.761424,0 5,2.238576 5,5 z"
         sodipodi:ry="5"
         sodipodi:rx="5"
         sodipodi:cy="20.900009"
         sodipodi:cx="60"
         id="path3146"
         style="fill:#000000;fill-opacity:1;stroke:none"
         sodipodi:type="arc" />
      <path
         style="fill:#000000;stroke:none"
         d="m -445,280 c 1.36867,4.64363 2.93124,9.64935 5.01627,12.74784 8.5782,12.74784 7.53747,16.88634 2.52095,23.37104 4.74442,-13.39744 -2.58023,-17.73693 -7.53722,-22.34924 z"
         id="path3150"
         inkscape:connector-curvature="0"
         sodipodi:nodetypes="csccc" />
      <path
         sodipodi:nodetypes="csccc"
         inkscape:connector-curvature="0"
         id="path3152"
         d="m -445.0225,267.61802 c 1.36867,4.26656 2.93123,8.86581 5.01626,11.71271 8.5782,11.71271 9.15606,18.08217 4.13954,24.04031 4.74442,-12.30957 -4.19881,-18.8637 -9.1558,-23.10148 z"
         style="fill:#000000;stroke:none" />
      <path
         style="fill:#000000;stroke:none"
         d="m -445.0225,256.14417 c 1.36867,4.26657 3.06146,8.77488 5.01626,11.71271 7.5436,11.33709 7.5436,13.46173 3.84612,20.66004 3.69748,-10.58387 -3.90539,-15.48342 -8.86238,-19.7212 z"
         id="path3154"
         inkscape:connector-curvature="0"
         sodipodi:nodetypes="csccc" />
      <path
         sodipodi:nodetypes="csccc"
         inkscape:connector-curvature="0"
         id="path3156"
         d="m -445.0225,245.94498 c 1.36867,4.26657 3.06146,8.77488 5.01626,11.71271 7.5436,11.33709 7.5436,13.46174 3.84612,20.66004 3.69748,-10.58387 -3.90539,-15.48342 -8.86238,-19.7212 z"
         style="fill:#000000;stroke:none" />
      <rect
         ry="1"
         y="245"
         x="-446"
         height="65"
         width="2"
         id="rect3178"
         style="fill:#000000;fill-opacity:1;stroke:none" />
    </g>
  </g>
</svg>
