<svg xmlns="http://www.w3.org/2000/svg" width="500" height="500" viewBox="0 0 500 500">
  <defs>
    <style>
      .cls-1 {
        fill-rule: evenodd;
      }
    </style>
  </defs>
  <path id="_" data-name="ï¥" class="cls-1" d="M352.538,146.853q-0.437-.863-56.265-57.131-32.036-32.886-36.356-61.891H248.231V364.554q-12.558-12.984-35.49-12.984-26.841,0-52.8,17.313-19.476,12.558-30.729,30.08t-11.253,34.408a38.633,38.633,0,0,0,6.059,21.207q12.111,18.179,39.818,18.178,26.831,0,52.8-16.879,19.478-12.985,30.73-30.3t11.253-33.759V116.989Q300.167,136.465,328.733,162q38.954,35.058,40.251,71.846,0.863,37.654-18.61,68.383-9.961,16.018-35.923,41.117l4.76,5.626q27.267-26.83,38.953-44.579,23.8-35.919,23.8-77.039,0-43.273-29.43-80.5h0Z"/>
  <path id="_." data-name="." class="cls-1" d="M354.6,440.8c14.8,0,24-10.8,24-25.2,0-15.2-9.6-26-23.6-26s-24,10.8-24,26C331,428.8,339.4,440.8,354.6,440.8Z"/>
  <path id="_.-2" data-name="." class="cls-1" d="M434.6,440.8c14.8,0,24-10.8,24-25.2,0-15.2-9.6-26-23.6-26s-24,10.8-24,26C411,428.8,419.4,440.8,434.6,440.8Z"/>
</svg>
