<svg xmlns="http://www.w3.org/2000/svg" width="500" height="500" viewBox="0 0 500 500">
  <defs>
    <style>
      .cls-1, .cls-2 {
        fill-rule: evenodd;
      }

      .cls-2 {
        fill: #999;
      }
    </style>
  </defs>
  <path id="_" data-name="" class="cls-1" d="M83.99,182.631H79.339V370.963q-5.623-7.281-15.892-7.281-12.019,0-23.644,9.708a51.89,51.89,0,0,0-13.76,16.867,42.073,42.073,0,0,0-5.039,19.294,25.835,25.835,0,0,0,2.713,11.892q5.423,10.194,18.023,10.194,11.819,0,23.45-9.465a55.012,55.012,0,0,0,13.76-16.989,40.953,40.953,0,0,0,5.039-18.93V182.631Z"/>
  <path id="_2" data-name="" class="cls-2" d="M181.99,182.631h-4.651V370.963q-5.623-7.281-15.892-7.281-12.018,0-23.643,9.708a51.887,51.887,0,0,0-13.76,16.867,42.076,42.076,0,0,0-5.039,19.294,25.845,25.845,0,0,0,2.713,11.892q5.424,10.194,18.024,10.194,11.819,0,23.449-9.465a55.009,55.009,0,0,0,13.76-16.989,40.955,40.955,0,0,0,5.039-18.93V182.631Z"/>
  <path id="_3" data-name="" class="cls-2" d="M279.99,182.631h-4.651V370.963q-5.624-7.281-15.892-7.281-12.018,0-23.643,9.708a51.887,51.887,0,0,0-13.76,16.867,42.076,42.076,0,0,0-5.039,19.294,25.845,25.845,0,0,0,2.713,11.892q5.424,10.194,18.024,10.194,11.819,0,23.449-9.465a55.009,55.009,0,0,0,13.76-16.989,40.955,40.955,0,0,0,5.039-18.93V182.631Z"/>
  <path id="_4" data-name="" class="cls-2" d="M381.99,182.631h-4.651V370.963q-5.624-7.281-15.892-7.281-12.018,0-23.643,9.708a51.887,51.887,0,0,0-13.76,16.867,42.076,42.076,0,0,0-5.039,19.294,25.845,25.845,0,0,0,2.713,11.892q5.424,10.194,18.024,10.194,11.818,0,23.449-9.465a55.009,55.009,0,0,0,13.76-16.989,40.955,40.955,0,0,0,5.039-18.93V182.631Z"/>
  <path id="_5" data-name="" class="cls-2" d="M479.99,182.631h-4.651V370.963q-5.624-7.281-15.892-7.281-12.018,0-23.643,9.708a51.887,51.887,0,0,0-13.76,16.867,42.076,42.076,0,0,0-5.039,19.294,25.845,25.845,0,0,0,2.713,11.892q5.424,10.194,18.024,10.194,11.818,0,23.449-9.465a55.009,55.009,0,0,0,13.76-16.989,40.955,40.955,0,0,0,5.039-18.93V182.631Z"/>
  <path id="_6" data-name="" class="cls-1" d="M480.226,168.382H78.88V186.41H480.226V168.382Z"/>
  <path id="_7" data-name="" class="cls-1" d="M480.226,182.382H78.88V200.41H480.226V182.382Z"/>
  <path id="_8" data-name="" class="cls-1" d="M480.226,220.382H78.88V238.41H480.226V220.382Z"/>
  <path id="_9" data-name="" class="cls-1" d="M297.415,118.511a23.765,23.765,0,0,0-16.267-5.867,17.221,17.221,0,0,0-8.2,2.267,17.9,17.9,0,0,0-6.467,5.6q0.4-7.065.134-17.067,4.8,0.4,8.8.4,14,0,20.133-4.933,4.532-3.6,6.667-12.4a52.8,52.8,0,0,1-21.6,4.8,62.916,62.916,0,0,1-18.667-3.067q1.6,21.2.267,34.534-0.268,3.865,2.266,3.866,1.733,0,3.067-2.4a11.807,11.807,0,0,1,10.533-6.266q5.066-.132,8.734,4.6a17.856,17.856,0,0,1,3.666,11.266q0,8.267-3.4,13.467t-8.866,5.2q-5.869.131-9.334-3.067a3.57,3.57,0,0,1-1.333-2.133c-0.09-.713.177-1.067,0.8-1.067a6.4,6.4,0,0,0,4.667-2,7.034,7.034,0,0,0,2-5.2,7.873,7.873,0,0,0-2.334-5.8,7.833,7.833,0,0,0-11.466.334,8.6,8.6,0,0,0-2.467,6q-0.135,8.53,6.4,13.066,5.731,4.131,14.4,4.134a24.77,24.77,0,0,0,17.067-6.734,21.2,21.2,0,0,0,7.466-16.333A19.306,19.306,0,0,0,297.415,118.511Z"/>
</svg>
