<svg xmlns="http://www.w3.org/2000/svg" width="500" height="500" viewBox="0 0 500 500">
  <defs>
    <style>
      .cls-1, .cls-2 {
        fill-rule: evenodd;
      }

      .cls-2 {
        fill: #999;
      }
    </style>
  </defs>
  <path id="_" data-name="" class="cls-1" d="M83.99,182.631H79.339V370.963q-5.623-7.281-15.892-7.281-12.019,0-23.644,9.708a51.89,51.89,0,0,0-13.76,16.867,42.073,42.073,0,0,0-5.039,19.294,25.835,25.835,0,0,0,2.713,11.892q5.423,10.194,18.023,10.194,11.819,0,23.45-9.465a55.012,55.012,0,0,0,13.76-16.989,40.953,40.953,0,0,0,5.039-18.93V182.631Z"/>
  <path id="_2" data-name="" class="cls-2" d="M162.99,182.631h-4.651V370.963q-5.623-7.281-15.892-7.281-12.018,0-23.643,9.708a51.887,51.887,0,0,0-13.76,16.867,42.076,42.076,0,0,0-5.039,19.294,25.845,25.845,0,0,0,2.713,11.892q5.424,10.194,18.024,10.194,11.819,0,23.449-9.465a55.009,55.009,0,0,0,13.76-16.989,40.955,40.955,0,0,0,5.039-18.93V182.631Z"/>
  <path id="_3" data-name="" class="cls-2" d="M249.99,182.631h-4.651V370.963q-5.623-7.281-15.892-7.281-12.018,0-23.643,9.708a51.887,51.887,0,0,0-13.76,16.867,42.076,42.076,0,0,0-5.039,19.294,25.845,25.845,0,0,0,2.713,11.892q5.424,10.194,18.024,10.194,11.819,0,23.449-9.465a55.009,55.009,0,0,0,13.76-16.989,40.955,40.955,0,0,0,5.039-18.93V182.631Z"/>
  <path id="_4" data-name="" class="cls-2" d="M329.99,182.631h-4.651V370.963q-5.624-7.281-15.892-7.281-12.018,0-23.643,9.708a51.887,51.887,0,0,0-13.76,16.867,42.076,42.076,0,0,0-5.039,19.294,25.845,25.845,0,0,0,2.713,11.892q5.424,10.194,18.024,10.194,11.818,0,23.449-9.465a55.009,55.009,0,0,0,13.76-16.989,40.955,40.955,0,0,0,5.039-18.93V182.631Z"/>
  <path id="_5" data-name="" class="cls-2" d="M404.99,182.631h-4.651V370.963q-5.624-7.281-15.892-7.281-12.018,0-23.643,9.708a51.887,51.887,0,0,0-13.76,16.867,42.076,42.076,0,0,0-5.039,19.294,25.845,25.845,0,0,0,2.713,11.892q5.424,10.194,18.024,10.194,11.818,0,23.449-9.465a55.009,55.009,0,0,0,13.76-16.989,40.955,40.955,0,0,0,5.039-18.93V182.631Z"/>
  <path id="_6" data-name="" class="cls-2" d="M479.99,182.631h-4.651V370.963q-5.624-7.281-15.892-7.281-12.018,0-23.643,9.708a51.887,51.887,0,0,0-13.76,16.867,42.076,42.076,0,0,0-5.039,19.294,25.845,25.845,0,0,0,2.713,11.892q5.424,10.194,18.024,10.194,11.818,0,23.449-9.465a55.009,55.009,0,0,0,13.76-16.989,40.955,40.955,0,0,0,5.039-18.93V182.631Z"/>
  <path id="_7" data-name="" class="cls-1" d="M480.226,168.382H78.88V186.41H480.226V168.382Z"/>
  <path id="_8" data-name="" class="cls-1" d="M480.226,182.382H78.88V200.41H480.226V182.382Z"/>
  <path id="_9" data-name="" class="cls-1" d="M480.226,220.382H78.88V238.41H480.226V220.382Z"/>
  <path id="_10" data-name="" class="cls-1" d="M298.371,118.827a17.1,17.1,0,0,0-12.99-4.4q-7.768.27-12.185,5.2,0.4-13.2,3.358-19.6,3.356-7.2,10.34-7.733,4.968-.266,4.968,1.733a2.478,2.478,0,0,1-1.333,1.733q-2.934,2.134-3.067,6.933a6.818,6.818,0,0,0,2.334,5.067,8.288,8.288,0,0,0,6.2,2.533,6.746,6.746,0,0,0,5.4-2.667,9.927,9.927,0,0,0,2.2-6.533,11.976,11.976,0,0,0-4.8-10.067q-4.8-3.666-13.867-3.4-9.6.269-17.867,10.533a38.7,38.7,0,0,0-8.533,24.666q0,13.6,6.933,23.734t17.2,9.6q10.4-.534,16-6.667t5.6-15.733q0-9.735-5.891-14.934h0Zm-15.442,33.467q-5.869.266-8-6.373-1.869-5.574-1.733-18.852a11.389,11.389,0,0,1,10.133-5.975q5.466-.13,7.467,3.121t2,11.085q0,16.462-9.867,16.994h0Z"/>
</svg>
