<svg xmlns="http://www.w3.org/2000/svg" width="500" height="500" viewBox="0 0 500 500">
  <defs>
    <style>
      .cls-1 {
        fill-rule: evenodd;
      }
    </style>
  </defs>
  <path id="_" data-name="" class="cls-1" d="M339.28,277.045q6.47-16.893,6.47-31.994,0-27.315-22.288-53.563-21.931-21.207-43.857-42.42-25.529-25.158-30.2-46.373H239.7V382.374q-10.43-10.785-29.477-10.785-22.294,0-43.857,14.38a83.4,83.4,0,0,0-25.524,24.984q-9.352,14.559-9.346,28.579a32.089,32.089,0,0,0,5.032,17.615q10.06,15.1,33.432,15.1,21.924,0,43.5-14.02,16.177-10.785,25.523-25.164t9.347-28.04V242.175q40.257,12.588,60.393,25.164,32.355,20.49,33.792,48.89,0.716,21.569-6.111,35.229-4.677,10.068-21.21,28.4l3.954,3.955q19.05-21.57,24.086-31.275,8.265-15.453,7.909-39.184-0.363-19.05-11.863-36.308h0Zm-35.511-37.387q-26.456-23-35.145-32.713Q251.225,187.9,248.33,171q90.944,32.353,90.95,80.524a58.135,58.135,0,0,1-3.623,19.772q-9.066-11.5-31.888-31.635h0Z"/>
  <path id="_2" data-name=" " class="cls-1" d="M326.425,135.53q-22.7-21.52-45.4-43.055-25.449-25.044-30.53-47.361H240.315V115.96q108.808,36.017,108.812,91.2,0,14.87-8.219,30.53l5.871,2.348q9.393-22.31,9.394-37.575A81.08,81.08,0,0,0,355,189.154q-4.311-27.007-28.573-53.624h0Z"/>
</svg>
