<svg xmlns="http://www.w3.org/2000/svg" width="500" height="500" viewBox="0 0 500 500">
  <defs>
    <style>
      .cls-1 {
        fill-rule: evenodd;
      }
    </style>
  </defs>
  <path id="_" data-name="" class="cls-1" d="M287.638,196.442L260.114,284.3Q244.6,316.476,206.3,320.155q-7.756.912-7.749-2.292,0-1.838,4.354-4.355t7.564-10.314a28.52,28.52,0,0,0,2.292-14.668,28.089,28.089,0,0,0-10.314-19.252,30.648,30.648,0,0,0-19.939-7.334,29.1,29.1,0,0,0-21.315,8.939q-8.939,8.938-8.939,22.689a34.267,34.267,0,0,0,11.7,26.587q11.69,10.539,30.955,11,35.313,0.45,57.334-19.7L203.525,468.19l12.463,0.029L348.445,37.792l-12.455-.029-4.777,15.528a64.267,64.267,0,0,1-23.506,25.727,76.308,76.308,0,0,1-34.014,11.947q-7.756.924-7.756-2.292,0-1.826,4.584-4.125t7.792-10.314q3.2-8.015,2.292-14.439-1.838-12.376-10.543-19.71a29.8,29.8,0,0,0-19.71-7.334,29.264,29.264,0,0,0-21.773,9.168,30.96,30.96,0,0,0-8.939,22.461,34.013,34.013,0,0,0,11.882,26.586q11.883,10.55,30.612,11Q299.144,102.427,322,81.7L295.646,168.86q-16.029,33.036-55.844,36.7-7.327.924-7.327-2.292,0-1.825,4.355-4.354t7.563-10.314a28.5,28.5,0,0,0,2.292-14.668,30.331,30.331,0,0,0-10.543-19.252,29.808,29.808,0,0,0-19.71-7.334,28.521,28.521,0,0,0-21.544,9.168,31.383,31.383,0,0,0-8.709,22.46,34.222,34.222,0,0,0,11.7,26.586q11.709,10.551,30.532,11,36.72,0.462,59.224-20.119h0Z"/>
</svg>
