<svg xmlns="http://www.w3.org/2000/svg" width="500" height="500" viewBox="0 0 500 500">
  <defs>
    <style>
      .cls-1 {
        fill-rule: evenodd;
      }
    </style>
  </defs>
  <path id="_" data-name="" class="cls-1" d="M327.313,51.313l-23,76.063Q290.335,155.8,255.588,159.4q-6.395.4-6.388-2,0-2,3.8-4t6.6-8.8a24.857,24.857,0,0,0,2-12.8,26.461,26.461,0,0,0-9.2-16.8,26.7,26.7,0,0,0-36.2,1.4,25.029,25.029,0,0,0-7.4,19.4q0,14.4,10.213,23.6t26.631,9.2q31.632,0.4,51.256-17.169l-23.637,76.788Q259.642,256.2,226.407,259.4q-6.807.4-6.807-2,0-2,3.8-4t6.6-8.8a24.857,24.857,0,0,0,2-12.8,26.461,26.461,0,0,0-9.2-16.8,26.007,26.007,0,0,0-17.2-6.4,25.393,25.393,0,0,0-18.6,7.8,26.339,26.339,0,0,0-7.8,19.4q0,14.4,10.213,23.6t27.031,9.2q30.834,0.4,49.663-17.169l-24.013,78q-13.228,26.775-45.281,29.969-6.412.393-6.413-2,0-2.007,3.8-4t6.6-8.8a24.867,24.867,0,0,0,2-12.8,26.428,26.428,0,0,0-9.2-16.8,26.7,26.7,0,0,0-36.2,1.4,26.328,26.328,0,0,0-7.8,19.4q0,14.4,10.413,23.6t26.837,9.2q30.037,0.394,48.469-17.162L193.119,489.9l10.488-.1L350.4,13l-10.868-.025-4.063,13.188a57.587,57.587,0,0,1-20.556,22.625A65.4,65.4,0,0,1,285.188,59.4q-6.787.4-6.788-2,0-2,4.4-4,3.2-2,6.2-8.8a21.087,21.087,0,0,0,1.8-12.8A24.857,24.857,0,0,0,282,15a26.7,26.7,0,0,0-36.2,1.4A26.339,26.339,0,0,0,238,35.8q0,14.4,10.363,23.6t26.719,9.2Q307.37,69,327.313,51.313h0Z"/>
</svg>
