<svg xmlns="http://www.w3.org/2000/svg" width="500" height="500" viewBox="0 0 500 500">
  <defs>
    <style>
      .cls-1 {
        fill-rule: evenodd;
      }
    </style>
  </defs>
  <path id="_" data-name="" class="cls-1" d="M349.346,63.675l-10.041,29.7q-13.971,29.01-44.515,48.762t-64.583,23.285q-14.833,1.767-14.834-4.383,0-3.494,8.328-8.328,8.322-4.807,14.465-19.724,6.122-14.9,4.383-28.052-2.631-22.785-19.724-36.818Q205.731,54.1,184.692,54.087q-23.668,0-40.763,17.532t-17.094,42.954q0,30.7,22.285,50.844,22.272,20.176,58.994,21.039,70.8,0.883,114.495-38.749L231.879,445.9l23.833,0.041L373.165,63.73Z"/>
</svg>
