<svg xmlns="http://www.w3.org/2000/svg" width="500" height="500" viewBox="0 0 500 500">
  <defs>
    <style>
      .cls-1 {
        fill-rule: evenodd;
      }
    </style>
  </defs>
  <path id="_" data-name="ï±" class="cls-1" d="M281.267,18.153H270.442V368.13Q257.356,354.6,233.46,354.6q-27.969,0-55.022,18.04-20.3,13.088-32.021,31.345T134.691,439.84a40.259,40.259,0,0,0,6.314,22.1q12.621,18.942,41.943,18.942,27.5,0,54.571-17.589,20.3-13.53,32.021-31.57t11.727-35.178V18.153Z"/>
  <path id="_." data-name="." class="cls-1" d="M354.6,440.8c14.8,0,24-10.8,24-25.2,0-15.2-9.6-26-23.6-26s-24,10.8-24,26C331,428.8,339.4,440.8,354.6,440.8Z"/>
</svg>
