<svg xmlns="http://www.w3.org/2000/svg" width="500" height="500" viewBox="0 0 500 500">
  <defs>
    <style>
      .cls-1 {
        fill-rule: evenodd;
      }
    </style>
  </defs>
  <path id="_" data-name="ï¨" class="cls-1" d="M279.923,18.153H268.375V362.809q-12.846-13.325-36.3-13.324-27.44,0-54,17.321-19.925,13.325-31.43,31.313t-11.506,34.865a38.272,38.272,0,0,0,6.218,21.763q12.429,19.1,41.305,19.1,27.085,0,53.742-17.766,18.654-11.991,31.09-33.31,11.544-19.539,12.436-36.864V18.153ZM267.487,378.8q0,10.222-12.659,25.539T221.74,432.984q-35.091,23.547-59.071,23.54-15.99,0-15.99-11.992,0-10.212,12.658-25.539t33.089-28.647q34.644-23.537,59.071-23.54,15.99,0,15.99,11.992h0Z"/>
</svg>
