<svg xmlns="http://www.w3.org/2000/svg" width="500" height="500" viewBox="0 0 500 500">
  <defs>
    <style>
      .cls-1, .cls-2 {
        fill-rule: evenodd;
      }

      .cls-2 {
        fill: #a6a6a6;
      }
    </style>
  </defs>
  <path id="_" data-name="" class="cls-1" d="M116.736,181.133h-6.4V388.067q-7.737-8-21.866-8-16.538,0-32.533,10.666A61.887,61.887,0,0,0,37,409.267q-6.937,10.8-6.933,21.2A23.8,23.8,0,0,0,33.8,443.533q7.463,11.2,24.8,11.2,16.262,0,32.267-10.4A65.414,65.414,0,0,0,109.8,425.667q6.932-10.663,6.933-20.8V181.133Z"/>
  <path id="_2" data-name="" class="cls-2" d="M285.736,179.133h-6.4V386.067q-7.737-8-21.866-8-16.538,0-32.534,10.666A61.888,61.888,0,0,0,206,407.267q-6.937,10.8-6.933,21.2a23.8,23.8,0,0,0,3.733,13.066q7.462,11.2,24.8,11.2,16.263,0,32.267-10.4A65.412,65.412,0,0,0,278.8,423.667q6.931-10.663,6.933-20.8V179.133Z"/>
  <path id="_3" data-name="" class="cls-2" d="M471.736,179.133h-6.4V386.067q-7.737-8-21.866-8-16.538,0-32.534,10.666A61.888,61.888,0,0,0,392,407.267q-6.937,10.8-6.933,21.2a23.8,23.8,0,0,0,3.733,13.066q7.463,11.2,24.8,11.2,16.263,0,32.267-10.4A65.412,65.412,0,0,0,464.8,423.667q6.931-10.663,6.933-20.8V179.133Z"/>
  <path id="_4" data-name="" class="cls-1" d="M472.287,151.315H110.361v16.257H472.287V151.315Z"/>
  <path id="_5" data-name="" class="cls-1" d="M472.287,166.311H110.271v16.261H472.287V166.311Z"/>
  <path id="_6" data-name="" class="cls-1" d="M295.9,97.135q15.144-.927,14.991-19.318-0.312-8.345-8.964-13.445a33.973,33.973,0,0,0-17.154-4.327,27.933,27.933,0,0,0-15.453,4.482q-8.038,5.256-7.727,13.136a9.25,9.25,0,0,0,3.4,7.263,10.346,10.346,0,0,0,7.109,2.473,9.561,9.561,0,0,0,6.877-3.245,9.219,9.219,0,0,0,2.7-6.8q-0.156-4.636-2.473-6.954a13.064,13.064,0,0,0-2.55-1.236q-1.934-.771-1.932-1.391,0-2.626,7.418-2.627,12.517,0,13.136,13.237,0.773,16.437-14.99,16.434h-4.482q-5.1-.308-5.1,2.936t5.1,3.09H283.7q12.825,0,12.672,14.218,0,10.971-7.882,16.227a17.941,17.941,0,0,1-11.281,3.091,6.743,6.743,0,0,1-3.323-1.314q-1.621-1.159-1.622-2.241a1.958,1.958,0,0,1,1.545-1.7q5.871-2.317,5.718-9.736a9.42,9.42,0,0,0-3.477-7.031,10.4,10.4,0,0,0-14.6.927,10.489,10.489,0,0,0-2.627,7.959,17.674,17.674,0,0,0,7.5,13.754q7.031,5.251,18.622,5.254,12.518-.156,20.322-7.882a23.649,23.649,0,0,0,7.341-18.544q-1.547-15.764-16.691-16.69h0Z"/>
</svg>
