<svg xmlns="http://www.w3.org/2000/svg" width="500" height="500" viewBox="0 0 500 500">
  <defs>
    <style>
      .cls-1 {
        fill-rule: evenodd;
      }
    </style>
  </defs>
  <path id="_" data-name="" class="cls-1" d="M274.2,317.769q-4.917-10.438-4.907-19.64,0-9.821,8.483-30.069l38.945-92.143q7.159-15.312,7.169-24.51,0-14.09-14.723-31.257l-85.27-98.661q-9.2-11.028-16.563-11.033c-3.278,0-4.908,2.051-4.908,6.135s2.042,9.2,6.135,15.336l42.328,61.346q7.965,11.042,7.975,19.017,0,5.521-6.748,20.858l-36.194,87.11q-9.821,23.322-9.815,31.9,0,8.6,8.588,20.858l54.6,79.749q-23.925-7.98-44.783-7.975-44.787,0-55.824,31.9A67.679,67.679,0,0,0,165,398.161q0,28.209,23.312,53.37Q209.159,473,239.228,484.658q8.584,3.681,14.723,3.681,7.362,0,7.362-4.908,0-3.681-21.164-19.631t-21.165-37.42a45.092,45.092,0,0,1,6.135-22.085q11.041-20.244,36.807-20.244,18.4,0,35.274,16.257t27.3,16.256q7.965,0,7.975-6.748,0-9.216-14.723-23.321-20.244-21.48-43.556-68.726h0Z"/>
</svg>
