<svg xmlns="http://www.w3.org/2000/svg" width="500" height="500" viewBox="0 0 500 500">
  <defs>
    <style>
      .cls-1 {
        fill-rule: evenodd;
      }
    </style>
  </defs>
  <path id="_" data-name="" class="cls-1" d="M336.692,248.154q-40.414,0-82.33,41.927V10.313H236.829v250.8a71.078,71.078,0,0,0-40.915-12.959q-40.164,0-81.817,41.927V10.313H96.563V472.274q0,16.76,9.148,16.771,5.325,0,14.484-6.861,44.97-35.841,94.527-83.854a159.519,159.519,0,0,0,22.107-27.444V472.274q0,16.76,9.148,16.771,5.323,0,14.484-6.861,44.97-35.841,94.526-83.854,41.164-39.646,41.165-88.429,0-34.3-16.771-47.263-19.831-14.472-42.689-14.484h0Zm-5.718,50.694a37.987,37.987,0,0,1,9.529,25.537q0,26.694-26.3,67.465t-59.841,65.94V330.484a66.735,66.735,0,0,1,22.107-30.874q15.24-11.809,30.493-11.816A30.4,30.4,0,0,1,330.974,298.848Zm-140.265,0a37.987,37.987,0,0,1,9.529,25.537q0,26.694-26.3,67.465T114.1,457.79V330.484A66.728,66.728,0,0,1,136.2,299.61q15.24-11.809,30.492-11.816A30.408,30.408,0,0,1,190.709,298.848Z"/>
</svg>
