<svg xmlns="http://www.w3.org/2000/svg" width="500" height="500" viewBox="0 0 500 500">
  <defs>
    <style>
      .cls-1 {
        fill-rule: evenodd;
      }
    </style>
  </defs>
  <path id="_" data-name="" class="cls-1" d="M310.272,202.118q-61.575,0-70.849-1.161-26.731-5.826-55.751-36.006,33.674-29.018,56.912-34.844,15.081-3.484,69.688-3.484-3.484-63.863,5.808-112.662-45.3,9.31-110.34,5.807,0,62.719-2.323,72.011-4.655,26.731-36,54.589-26.732-32.8-32.521-57.42-3.484-12.876-3.485-69.125-63.889,3.539-111.5-5.862,8.112,45.678,4.646,112.372,65.033,0,70.849,1.179,26.7,4.683,54.589,35.116-33.7,28.094-56.912,33.937-15.108,3.512-68.526,3.521,3.484,63.208-5.807,112.372,44.127-9.392,111.5-5.862,0-64.461,1.161-70.305,4.629-28.12,34.844-56.241,29.019,33.673,34.844,58.074,3.485,15.081,3.485,68.526,62.719-3.484,111.5,5.808-9.31-44.154-5.808-110.34h0Z"/>
</svg>
