<svg id="レイヤー_1" data-name="レイヤー 1" xmlns="http://www.w3.org/2000/svg" viewBox="0 0 575.09 706.8"><defs><style>.cls-1,.cls-2{fill:#231815;}.cls-1,.cls-3{stroke:#231815;stroke-miterlimit:10;}.cls-3{fill:none;}</style></defs><path class="cls-1" d="M418.81,384.31c-142,0-257.15,114-257.15,254.57S276.79,893.45,418.81,893.45,676,779.48,676,638.88,560.84,384.31,418.81,384.31Zm0,456.5c-116.29,0-210.55-90.4-210.55-201.93S302.53,437,418.82,437s210.55,90.41,210.55,201.93S535.1,840.81,418.82,840.81Z" transform="translate(-117.39 -187.15)"/><rect class="cls-2" x="307.74" y="58.15" width="56.02" height="393.58"/><rect class="cls-3" x="307.74" y="58.15" width="56.02" height="393.58"/><path class="cls-2" d="M481.14,638.88c0,33.31-27.9,60.31-62.33,60.31s-62.32-27-62.32-60.31,27.9-60.31,62.32-60.31S481.14,605.57,481.14,638.88Z" transform="translate(-117.39 -187.15)"/><path class="cls-3" d="M481.14,638.88c0,33.31-27.9,60.31-62.33,60.31s-62.32-27-62.32-60.31,27.9-60.31,62.32-60.31S481.14,605.57,481.14,638.88Z" transform="translate(-117.39 -187.15)"/><path class="cls-2" d="M204.53,649.21a211,211,0,0,1,68.81-155.9c3-117,94.06-210.95,206-210.95,113.83,0,206.1,97.07,206.1,216.82,0,54.87-19.39,105-51.34,143.17,0,1.68.08,3.36.1,5A285.82,285.82,0,0,0,692,474.69c0-158.53-128.51-287-287-287s-287,128.51-287,287a286.24,286.24,0,0,0,89.32,208.09A212.39,212.39,0,0,1,204.53,649.21Z" transform="translate(-117.39 -187.15)"/><path class="cls-3" d="M204.53,649.21a211,211,0,0,1,68.81-155.9c3-117,94.06-210.95,206-210.95,113.83,0,206.1,97.07,206.1,216.82,0,54.87-19.39,105-51.34,143.17,0,1.68.08,3.36.1,5A285.82,285.82,0,0,0,692,474.69c0-158.53-128.51-287-287-287s-287,128.51-287,287a286.24,286.24,0,0,0,89.32,208.09A212.39,212.39,0,0,1,204.53,649.21Z" transform="translate(-117.39 -187.15)"/></svg>