<svg xmlns="http://www.w3.org/2000/svg" width="1920" height="1080" viewBox="0 0 1920 1080">
  <defs>
    <style>
      .cls-1, .cls-5, .cls-7 {
        fill-rule: evenodd;
      }

      .cls-2 {
        fill: #00b7ee;
      }

      .cls-2, .cls-3, .cls-4, .cls-5, .cls-6 {
        stroke: #000;
        stroke-width: 5px;
      }

      .cls-3 {
        fill: #b3d465;
      }

      .cls-4 {
        fill: #f19149;
      }

      .cls-5 {
        fill: #448aca;
      }

      .cls-6 {
        fill: #fff45c;
      }

      .cls-7 {
        fill: #373737;
      }
    </style>
  </defs>
  <path id="コードネームの主な仕組み" class="cls-1" d="M331.234,89.236h-78.8v14.241h63.612v37.978H252.431V155.7h63.612v3.323h15.191V89.236Zm137,34.18V109.174H358.578v14.242h109.66ZM510.3,66.449H497.955V166.615H512.2v-50.8a109.185,109.185,0,0,1,19.463,6.646q8.546,3.806,18.514,9.5l7.121-11.394Q545.9,114.4,534.983,109.649a160.948,160.948,0,0,0-22.786-7.6V70.722q2.37-1.424,1.9-2.848c-0.319-.949-1.588-1.424-3.8-1.424h0Zm42.25-7.121-7.6,6.171q4.274,4.272,9.02,8.545a64.436,64.436,0,0,1,8.545,9.494l8.07-7.6q-4.751-6.642-18.039-16.615h0Zm-11.868,9.02-8.07,6.171q8.544,6.175,18.039,18.039l8.07-7.121a61,61,0,0,0-7.6-8.07q-6.176-5.218-10.444-9.02h0ZM643.5,62.177H631.161V82.115h-33.7l1.424,13.292h52.694a208.228,208.228,0,0,1-28.958,21.363,372.491,372.491,0,0,1-33.705,17.089l9.969,10.919a177.525,177.525,0,0,0,33.705-18.989v44.149h14.242V116.3q11.393-8.546,25.16-23.736,5.219-.467.949-4.747l-6.646-7.121-3.323,1.424H645.4V66.449q2.37-1.424,1.9-2.848c-0.318-.949-1.587-1.424-3.8-1.424h0Zm16.615,50.795-7.6,9.494a252.306,252.306,0,0,1,31.332,23.261l9.019-9.494a97.878,97.878,0,0,0-13.292-10.444q-10.926-7.588-19.463-12.817h0Zm163.113,10.444V109.174H713.572v14.242h109.66Zm81.462-53.643-11.868-5.222q-4.752,18.514-13.767,44.623-9.024,25.167-12.818,32.756l-21.362.474,2.848,12.818q0.946,4.751,3.323,4.747,1.892,0,2.374-3.323l80.227-6.171a87.687,87.687,0,0,1,8.545,13.766l11.393-8.545q-16.143-26.58-32.28-43.674l-9.969,8.071a223.916,223.916,0,0,1,15.665,18.988l-46.047,2.374q4.272-9.969,11.868-31.332t12.342-35.6q2.848,0,2.849-1.424c0-1.261-1.113-2.374-3.323-3.323h0Zm127.036,0.475q-22.785,0-37.979,15.191t-15.191,35.6q0,20.416,9.969,30.382,6.642,6.654,15.191,6.646,8.07,0,15.19-9.02,5.7-7.121,10.92-27.533,5.7-21.829,7.12-32.756a3.251,3.251,0,0,0,2.85-2.374c0-1.261-2.54-2.529-7.6-3.8q18.045,0,27.06,9.02,8.55,8.545,8.55,23.736,0,24.211-36.08,37.978l10.92,11.868q18.03-7.588,28.48-20.413a45.943,45.943,0,0,0,10.44-29.907q0-21.829-13.29-33.231-13.77-11.393-36.55-11.393h0Zm-33.707,69.784q-5.229-5.219-5.222-18.514,0-11.861,7.121-23.261,7.587-12.339,23.738-14.716-3.33,28.962-11.87,52.219-3.33,7.12-8.55,7.121-2.37,0-5.217-2.848h0ZM1173.95,77.843a85.879,85.879,0,0,0-20.88-17.565l-9.02,8.545q7.59,6.654,14.71,14.242h-45.1V96.357h40.83V115.82h-31.81v13.292h31.81v25.16h-45.1v13.292h105.39V154.272h-46.05v-25.16h31.81V115.82h-31.81V96.357h40.83V83.065h-42.73Zm109.47-13.292-10.92-3.8q-2.835,12.35-6.17,23.261-11.865.479-24.21,0.475l1.43,14.242q7.11,0,18.51-.95a125.349,125.349,0,0,1-8.07,19.938,229.661,229.661,0,0,1-13.29,23.736l12.34,7.595a267.863,267.863,0,0,0,12.82-26.584q7.59-18.036,10.44-26.109,10.92-1.424,22.31-3.323l-2.37-13.767q-8.07,1.9-15.66,3.323,1.89-6.642,3.79-13.292c1.9-.312,2.69-0.95,2.38-1.9,0-1.261-1.12-2.21-3.33-2.848h0Zm60.29,29.432a151.614,151.614,0,0,0-34.18-15.191l-5.69,10.444q23.73,9.5,34.18,16.14ZM1316.18,104.9h-11.39V132.91q-15.21-3.315-26.11,2.848-9.51,5.7-9.5,15.191-0.48,9.024,7.12,14.716a28.484,28.484,0,0,0,16.14,4.748q12.825,0,18.99-6.172,5.22-5.229,6.17-13.766a111.321,111.321,0,0,1,18.99,9.969l7.12-11.394a108.233,108.233,0,0,0-25.63-12.817V108.7a3.859,3.859,0,0,0,1.42-2.373c-0.32-.95-1.42-1.424-3.32-1.424h0Zm-23.26,39.876a55.233,55.233,0,0,1,6.64.475,20.62,20.62,0,0,1,5.23.949q-0.48,6.176-3.33,9.02a13.213,13.213,0,0,1-8.07,2.848,18.447,18.447,0,0,1-8.07-1.424c-2.22-1.261-3.32-2.848-3.32-4.747a5.854,5.854,0,0,1,2.37-4.748q2.37-2.369,8.55-2.373h0Zm108.99-80.7-10.92-2.848q-4.26,32.288-25.16,54.118l8.55,12.343q6.645-6.642,9.02-10.918v53.168h15.19V94.933c0.63,0,.95-0.156.95-0.475,0.63-.312.47-0.949-0.48-1.9a5.923,5.923,0,0,0-2.37-.949,183.457,183.457,0,0,0,7.12-22.787,2.744,2.744,0,0,0,1.9-.475,1.19,1.19,0,0,0,0-1.9c-0.32-.949-1.59-1.736-3.8-2.373h0Zm41.78-1.424H1430.4V96.357h-28.96V110.6h28.96v41.775h-25.64v14.242h68.84V152.373h-28.01V110.6h32.28V96.357h-32.28V66.924a5.344,5.344,0,0,0,1.9-1.9q0.945-2.37-3.8-2.374h0Zm113.27,3.323V155.7h-11.4v12.343h66.46V155.7H1603V65.975h-46.04Zm-10.45,59.814-11.39,3.8a137.508,137.508,0,0,1,6.64,26.109l12.82-2.848q-0.48-8.546-4.74-19.463a81.61,81.61,0,0,0-3.33-7.6h0Zm-28.01,7.6q3.315-2.849,0-4.273c-0.95-.311-2.06-0.63-3.32-0.949l-8.54-1.424a85.785,85.785,0,0,1-4.28,21.837,87.9,87.9,0,0,1-3.79,9.019l12.34,5.222a67.1,67.1,0,0,0,5.69-16.615,54.206,54.206,0,0,0,1.9-12.817h0Zm15.67-68.834-9.02-4.747a146.828,146.828,0,0,1-14.24,24.211,19.171,19.171,0,0,0-2.85-2.374l-7.12,9.02a89.164,89.164,0,0,1,15.66,13.292,36.961,36.961,0,0,1-5.22,6.646h-12.81l1.42,11.393a6.709,6.709,0,0,0,.95,2.849,1.34,1.34,0,0,0,.95.474,1.513,1.513,0,0,0,1.42-.949,1.389,1.389,0,0,0,.48-0.949l17.09-.95v49.846h13.29v-50.8l9.97-1.424a32.464,32.464,0,0,0,2.37,4.747l9.97-6.646a143.238,143.238,0,0,0-13.29-21.837l-9.5,6.171a26.307,26.307,0,0,1,4.28,6.646l-11.4.949q10.44-12.816,20.89-26.109h1.9c1.9-.63,1.42-2.055-1.42-4.272l-9.02-5.7a229.241,229.241,0,0,1-14.24,20.413,60.5,60.5,0,0,0-4.75-4.273q7.125-9.491,14.71-20.888a2.744,2.744,0,0,0,1.9-.475c0.63-.311.63-1.105,0-2.374a15.8,15.8,0,0,0-2.37-1.9h0Zm55.54,13.767V93.508h-19.46V78.317h19.46Zm0,27.534v15.191h-19.46V105.851h19.46Zm0,27.534V155.7h-19.46V133.385h19.46Zm91.91-61.239a124.677,124.677,0,0,1-12.35,2.848,110.688,110.688,0,0,1-18.51,1.9l4.27,13.767q14.25-3.316,25.16-5.7a236.105,236.105,0,0,1-8.54,22.787q-18.045,0-28.96,10.918-9.03,9.024-9.02,20.413,0,8.546,5.22,13.767,4.74,4.75,10.45,4.747a16.079,16.079,0,0,0,11.86-4.747,56.17,56.17,0,0,0,9.97-13.292,124.679,124.679,0,0,0,8.55-18.514,125.337,125.337,0,0,1,31.33,7.595q-5.7,18.993-18.99,30.382l11.39,9.02a77.484,77.484,0,0,0,19.94-34.654,148.688,148.688,0,0,1,17.09,9.019l6.65-12.342a147.269,147.269,0,0,0-21.36-10.444,191.851,191.851,0,0,0,.95-25.16c1.58-.312,2.37-0.949,2.37-1.9-0.32-.949-1.59-1.736-3.8-2.374l-12.34-2.373q0.465,12.817,0,27.533a155.412,155.412,0,0,0-28.48-6.646q5.205-12.818,10.44-25.634,5.7-2.37,1.9-5.7l-9.5-8.07a23.744,23.744,0,0,1-5.69,2.848h0Zm-35.61,66.935q1.89-16.132,20.42-18.039-4.755,9.5-9.97,18.039-4.275,5.7-7.12,5.222-3.81-.945-3.33-5.222h0Z"/>
  <rect id="角丸長方形_1" data-name="角丸長方形 1" class="cls-2" x="53" y="267" width="763" height="705" rx="10" ry="10"/>
  <rect id="角丸長方形_2" data-name="角丸長方形 2" class="cls-3" x="838" y="654" width="382" height="318" rx="10" ry="10"/>
  <rect id="角丸長方形_2-2" data-name="角丸長方形 2" class="cls-4" x="1251" y="654" width="382" height="318" rx="10" ry="10"/>
  <path id="角丸長方形_3" data-name="角丸長方形 3" class="cls-5" d="M1674,657.808h207.6a10,10,0,0,1,10,10V958a10,10,0,0,1-10,10H1674a10,10,0,0,1-10-10V667.808A10,10,0,0,1,1674,657.808Z"/>
  <rect id="角丸長方形_2-3" data-name="角丸長方形 2" class="cls-6" x="1061" y="315" width="382" height="318" rx="10" ry="10"/>
  <path id="テンションなどconsectetur_adipiscing_elit_sed_do_eiusmod_tempor_incid" data-name="テンションなどconsectetur adipiscing elit, sed do eiusmod tempor incid" class="cls-7" d="M1701.83,804.481h-15.16V807.9h15.16v-3.418Zm4.1,6.95h-23.36v3.418h11.05A17.5,17.5,0,0,1,1692.6,821a13.359,13.359,0,0,1-4.1,5.127l2.84,2.279a21.981,21.981,0,0,0,4.22-5.7,17.5,17.5,0,0,0,1.59-7.861h8.78v-3.418Zm8.61-6.152-2.05,2.392c0.61,0.456,1.59,1.216,2.96,2.279q1.935,1.6,3.31,2.962l2.39-2.506a30.232,30.232,0,0,0-6.61-5.127h0Zm20.51,7.063-2.85-2.05q-2.505,6.836-7.75,9.57a30.1,30.1,0,0,1-12.64,3.076l0.45,3.19a0.956,0.956,0,0,0,.57.912,0.672,0.672,0,0,0,.8-0.57,30.358,30.358,0,0,0,13.33-3.874q5.355-3.187,8.09-10.254h0Zm17.38-5.013a31.086,31.086,0,0,0-6.49-4.1l-1.71,2.62a43.182,43.182,0,0,1,6.15,4.1Zm-11.62,5.241a48.143,48.143,0,0,1,6.16,4.1l2.05-2.621a43.146,43.146,0,0,0-6.5-3.987Zm23.93,0.228-2.28-2.051a25.617,25.617,0,0,1-7.41,7.976,35.407,35.407,0,0,1-11.73,4.9l1.48,2.962c0.3,0.684.61,0.986,0.91,0.911a0.887,0.887,0,0,0,.57-0.911q13.44-3.76,18.46-13.786h0Zm20.46-3.3h-14.35v3.19h11.05v3.532h-10.37v3.19h10.37v3.76h-11.05v3.19h11.16V827.5h3.19v-18Zm9.64-4.215-2.05,2.392c0.61,0.456,1.59,1.216,2.96,2.279q1.935,1.6,3.31,2.962l2.39-2.506a30.232,30.232,0,0,0-6.61-5.127h0Zm20.51,7.063-2.85-2.05q-2.505,6.836-7.75,9.57a30.1,30.1,0,0,1-12.64,3.076l0.45,3.19a0.956,0.956,0,0,0,.57.912,0.672,0.672,0,0,0,.8-0.57,30.358,30.358,0,0,0,13.33-3.874q5.355-3.187,8.09-10.254h0Zm15.9-9.57-2.62-.911c-0.45,1.976-.95,3.836-1.48,5.582-1.9.077-3.84,0.114-5.81,0.114l0.34,3.418c1.14,0,2.62-.074,4.45-0.228a30.987,30.987,0,0,1-1.94,4.786,56.129,56.129,0,0,1-3.19,5.7l2.96,1.823a64.722,64.722,0,0,0,3.08-6.38c1.21-2.886,2.05-4.974,2.5-6.266q2.625-.342,5.36-0.8l-0.57-3.3c-1.29.3-2.55,0.57-3.76,0.8,0.3-1.063.61-2.126,0.91-3.191,0.46-.074.64-0.227,0.57-0.455a0.861,0.861,0,0,0-.8-0.684h0Zm14.47,7.064a36.333,36.333,0,0,0-8.2-3.646l-1.37,2.507a53.716,53.716,0,0,1,8.2,3.873Zm-6.61,2.62h-2.73v6.722a8.656,8.656,0,0,0-6.27.684,4.12,4.12,0,0,0-2.28,3.646,3.968,3.968,0,0,0,1.71,3.532,6.842,6.842,0,0,0,3.88,1.139,6.184,6.184,0,0,0,4.55-1.481,5.375,5.375,0,0,0,1.49-3.3,27.017,27.017,0,0,1,4.55,2.392l1.71-2.734a25.99,25.99,0,0,0-6.15-3.076v-6.608a0.916,0.916,0,0,0,.34-0.57,0.741,0.741,0,0,0-.8-0.342h0Zm-5.58,9.571a13.312,13.312,0,0,1,1.6.114,4.915,4.915,0,0,1,1.25.227,3.339,3.339,0,0,1-.8,2.165,3.166,3.166,0,0,1-1.93.684,4.407,4.407,0,0,1-1.94-.342,1.327,1.327,0,0,1-.8-1.139,1.405,1.405,0,0,1,.57-1.14,2.877,2.877,0,0,1,2.05-.569h0Zm36.41-11.507a61.614,61.614,0,0,0-8.54,2.392q-0.345-4.214-.46-8.773a0.651,0.651,0,0,0,.46-0.683,1.031,1.031,0,0,0-1.14-.456h-2.62q0,2.735.11,6.152a34.262,34.262,0,0,0,.46,5.127,16.121,16.121,0,0,0-4.22,2.963,5.877,5.877,0,0,0-1.93,4.215,5.56,5.56,0,0,0,1.59,4.1,6.678,6.678,0,0,0,4.9,1.6h11.96l0.23-3.19h-11.73a5.518,5.518,0,0,1-2.74-.456,2.344,2.344,0,0,1-.91-2.165q0-2.163,4.44-4.443a29.094,29.094,0,0,1,11.17-3.076Zm-0.11-8.545-1.48,1.6a29.675,29.675,0,0,1,4.9,3.19l1.59-1.823q-2.625-1.595-5.01-2.962h0Zm-2.28,2.164-1.48,1.709a24.414,24.414,0,0,1,4.9,3.19l1.59-1.822a19.873,19.873,0,0,0-5.01-3.077h0Z"/>
  <path id="_7度_長7_Maj7_短7_7_長6_6" data-name="7度 長7⇒Maj7 短7⇒7 長6⇒6" class="cls-7" d="M1417.92,685.241V680h-23.24v5.469h17.09l-11.85,41.015h5.93Zm52.78,4.557h-5.02v4.1h-8.88v-2.279c1.37-1.061,1.21-1.67-.46-1.823h-5.47v4.1h-8.2v5.468h8.2v9.115h5.93v-1.595h8.88v1.139h5.93v-8.659h11.62V693.9h-11.62v-2.279q1.815-1.592-.91-1.823h0Zm-10.03-12.3h-5.47v5.925h-19.37v28.027a32.054,32.054,0,0,1-1.59,9.115,16.989,16.989,0,0,1-3.65,6.152l5.02,4.558q6.825-8.433,6.6-21.875V689.342h40.34v-5.924h-20.97v-3.874a2.491,2.491,0,0,0,.91-0.911c0.31-.759-0.3-1.14-1.82-1.14h0Zm5.01,21.875v2.051h-8.88v-2.051h8.88Zm7.52,9.571-0.91.683h-27.57v5.469h7.06a28.228,28.228,0,0,0,5.47,6.608,13.423,13.423,0,0,1-3.87,1.6,74.139,74.139,0,0,1-12.76,2.051l2.28,6.836a42.653,42.653,0,0,0,19.82-6.608,56.561,56.561,0,0,0,18.92,5.924l2.5-6.608a62.129,62.129,0,0,1-12.76-2.05,17.081,17.081,0,0,1-2.96-1.14,58.96,58.96,0,0,0,7.52-7.519,0.918,0.918,0,0,0,.68-0.228,0.736,0.736,0,0,0,.46-0.684,0.924,0.924,0,0,0-.46-1.139Zm-14.58,6.152h8.43a29.548,29.548,0,0,1-4.56,3.646,29.6,29.6,0,0,1-3.87-3.646h0Zm-89.28,50.13h-23.09v16.407h-7.3v3.949h7.3v9.571l-5.47.607,1.21,4.1c0.2,0.809.56,1.113,1.07,0.911a1.653,1.653,0,0,0,.6-0.759l16.11-3.19-0.92-3.8-8.35,1.519v-8.963h3.8q4.56,11.091,18.07,13.976l2.13-4.4a46.233,46.233,0,0,1-8.2-2.431,12.3,12.3,0,0,1-1.98-1.063l3.95-2.735a1.139,1.139,0,0,0,1.22-.3c0.3-.3.15-0.707-0.46-1.215l-2.28-1.823h7.14v-3.949H1350.5v-1.671h16.71v-3.646H1350.5v-1.823h16.56v-3.646H1350.5v-1.671h18.84v-3.95Zm-10.79,20.356h6.68l-4.25,3.494a4.86,4.86,0,0,1-1.52-1.671,7.739,7.739,0,0,1-.91-1.823h0Zm39.44-16.1v-3.494h-15.5v3.646h11.39l-7.89,27.343h3.95Zm43.23,12.76L1430.28,771.3l-2.88,3.038,1.67,1.671h-21.88v4.253h26.43l1.98,1.975-1.98,1.975h-26.43v4.254h21.88l-1.52,1.519,2.73,3.19Zm20.14,7.748-6.23-24h-5.31V796.97h3.95V775.1l5.62,21.875h3.95l5.62-21.875V796.97h3.95V765.981h-5.32Zm27.29-15.647a6.8,6.8,0,0,0-5.02,1.823,9.464,9.464,0,0,0-2.43,6.228h4.26c0.5-2.734,1.67-4.1,3.49-4.1a2.656,2.656,0,0,1,1.97.759,2.764,2.764,0,0,1,.92,1.975q0,1.52-2.13,1.823-4.71.912-6.84,3.038a7.184,7.184,0,0,0-.15,9.722,5.567,5.567,0,0,0,4.1,1.671,8.027,8.027,0,0,0,5.02-2.126,9.535,9.535,0,0,0,.6,1.822h4.11a11.794,11.794,0,0,1-.92-4.4V781.931c0-2.53-.6-4.405-1.82-5.62a7,7,0,0,0-5.16-1.975h0Zm3.03,16.558c-1.11,1.621-2.33,2.431-3.64,2.431a2.885,2.885,0,0,1-2.13-.76,2.653,2.653,0,0,1-.76-1.975,3.64,3.64,0,0,1,1.22-2.582q1.515-1.517,5.31-1.671v4.557Zm20-18.989v-5.924h-4.26v5.924h4.26Zm-4.11,25.521a0.671,0.671,0,0,1-.76.76h-2.43v3.342h4.41q2.73,0,2.73-3.494V774.488h-3.95v22.938Zm29.57-27.951v-3.494h-15.5v3.646h11.39l-7.9,27.343h3.95Zm-134.55,75.8h4.25v-12h-16.25v12.3h4.25v-0.76h7.75v0.456Zm-20.51-22.027-3.19-.912a33.836,33.836,0,0,1-2.43,8.052,15.839,15.839,0,0,1-2.28,3.8l2.74,3.039a27.339,27.339,0,0,0,3.03-5.317h0.61v5.62h-5.77v3.95h5.77V842.7a15.543,15.543,0,0,1-5.77,12.457l2.28,3.95a19.185,19.185,0,0,0,6.68-10.33,10.1,10.1,0,0,1,2.43,3.342,3.432,3.432,0,0,1,.46,1.063h-0.31v3.95h23.85v-3.95h-6.68q0.6-1.973,1.67-5.924a0.87,0.87,0,0,0,.61-0.152,0.376,0.376,0,0,0,0-.456,1.211,1.211,0,0,0-1.06-.608l-3.65-.911a26.052,26.052,0,0,1-1.82,8.051h-3.95l3.34-1.063q-1.215-3.341-2.43-6.077l-3.8,1.064a19.876,19.876,0,0,1,2.13,6.076h-7.29l2.88-2.734a37.438,37.438,0,0,0-5.31-6.229V841.48h5.16v-3.95h-5.16v-5.62h3.64v-3.95h-6.99l1.07-3.342c0.4,0,.6-0.1.6-0.3a0.5,0.5,0,0,0-.15-0.607,1.9,1.9,0,0,0-.91-0.456h0Zm26.89,2.43h-20.05v4.254h20.05v-4.254Zm-6.38,11.242v4.253h-7.75v-4.253h7.75Zm31.08-9.115v-3.494h-15.49v3.646h11.39l-7.9,27.344h3.95Zm43.23,12.761-10.93-10.938-2.89,3.038,1.67,1.671h-21.87v4.254h26.43l1.97,1.975-1.97,1.974h-26.43V846.8h21.87l-1.52,1.519,2.74,3.19Zm24.55-12.761v-3.494h-15.49v3.646h11.39l-7.9,27.344h3.95Zm-96.43,54.08h-23.09v16.406h-7.29v3.95h7.29v9.57l-5.47.608,1.22,4.1c0.2,0.81.55,1.114,1.06,0.912a1.723,1.723,0,0,0,.61-0.76l16.1-3.19-0.91-3.8-8.36,1.52v-8.963h3.8q4.56,11.091,18.08,13.976l2.12-4.406a46.473,46.473,0,0,1-8.2-2.43,11.789,11.789,0,0,1-1.97-1.064l3.95-2.734a1.122,1.122,0,0,0,1.21-.3c0.31-.3.15-0.707-0.45-1.215l-2.28-1.823h7.14v-3.95h-23.4v-1.671h16.71v-3.646h-16.71v-1.823h16.56v-3.645h-16.56v-1.671h18.84v-3.95Zm-10.79,20.356h6.69l-4.26,3.494a4.844,4.844,0,0,1-1.51-1.671,7.809,7.809,0,0,1-.92-1.823h0Zm31.84-5.317a3.634,3.634,0,0,1,2.59,1.215,8.677,8.677,0,0,1,0,10.634,3.357,3.357,0,0,1-5.17,0q-1.515-1.516-1.52-5.317t1.52-5.317a3.631,3.631,0,0,1,2.58-1.215h0Zm0.31-14.583a7.559,7.559,0,0,0-5.47,2.43q-3.5,3.5-3.49,14.128,0,9.57,3.19,12.76a7.692,7.692,0,0,0,10.93,0q2.895-2.883,2.89-8.2t-2.89-8.2a7.283,7.283,0,0,0-5.31-2.279,6.087,6.087,0,0,0-4.86,2.735q0.3-6.228,2.43-8.355a3.336,3.336,0,0,1,2.43-1.064,3.1,3.1,0,0,1,2.28.912,5.723,5.723,0,0,1,1.36,2.582h3.95a10.192,10.192,0,0,0-2.73-5.62,6.386,6.386,0,0,0-4.71-1.823h0ZM1476.9,898.9l-10.93-10.938L1463.08,891l1.67,1.671h-21.87v4.253h26.43l1.97,1.975-1.97,1.975h-26.43v4.253h21.87l-1.52,1.519,2.74,3.19Zm16.96-1.975a3.631,3.631,0,0,1,2.58,1.215,8.677,8.677,0,0,1,0,10.634,3.357,3.357,0,0,1-5.17,0q-1.515-1.516-1.51-5.317t1.51-5.317a3.652,3.652,0,0,1,2.59-1.215h0Zm0.3-14.583a7.559,7.559,0,0,0-5.47,2.43q-3.5,3.5-3.49,14.128,0,9.57,3.19,12.76a7.7,7.7,0,0,0,10.94,0q2.88-2.883,2.88-8.2t-2.88-8.2a7.3,7.3,0,0,0-5.32-2.279,6.1,6.1,0,0,0-4.86,2.735q0.3-6.228,2.43-8.355a3.353,3.353,0,0,1,2.43-1.064,3.1,3.1,0,0,1,2.28.912,5.723,5.723,0,0,1,1.36,2.582h3.95a10.126,10.126,0,0,0-2.73-5.62,6.386,6.386,0,0,0-4.71-1.823h0Z"/>
  <path id="_5度_完全_パワーコード_5_増_5_aug_など_減_5_5_など" data-name="5度 完全(パワーコード)⇒5 増⇒＋5,aug など 減⇒－5,(♭5) など" class="cls-7" d="M1215.72,377.235a5.443,5.443,0,0,1,5.26-3.441,5.5,5.5,0,0,1,4.05,1.619q2.025,2.026,2.02,6.883,0,5.465-2.02,7.489a5.262,5.262,0,0,1-3.85,1.62,4.379,4.379,0,0,1-3.24-1.215q-2.025-2.02-2.43-6.477h-5.26q0.81,6.679,4.05,9.919a9.31,9.31,0,0,0,6.88,2.631,10.419,10.419,0,0,0,7.69-3.036q3.45-3.439,3.44-10.931,0-7.084-3.44-10.526a8.9,8.9,0,0,0-6.47-2.834,9.714,9.714,0,0,0-6.08,2.024l1.02-11.538h12.95v-4.859h-18.22l-1.41,22.672h5.06Zm62.87-13.967h-4.45v3.643h-7.9v-2.024c1.22-.943,1.08-1.483-0.4-1.619h-4.86v3.643h-7.29v4.859h7.29v8.1h5.26V378.45h7.9v1.012h5.26V371.77h10.32v-4.859H1279.4v-2.024q1.62-1.414-.81-1.619h0Zm-8.91-10.931h-4.86V357.6h-17.2v24.9a28.573,28.573,0,0,1-1.42,8.1,15.076,15.076,0,0,1-3.24,5.466l4.46,4.048q6.06-7.491,5.87-19.433V362.863h35.83V357.6h-18.63v-3.442a2.18,2.18,0,0,0,.81-0.809q0.4-1.011-1.62-1.012h0Zm4.46,19.433v1.821h-7.9V371.77h7.9Zm6.68,8.5-0.81.608h-24.5v4.858h6.28a24.858,24.858,0,0,0,4.86,5.87,12.027,12.027,0,0,1-3.44,1.417,65.906,65.906,0,0,1-11.34,1.822l2.02,6.073a37.857,37.857,0,0,0,17.61-5.87,50.345,50.345,0,0,0,16.81,5.263l2.22-5.871a55.113,55.113,0,0,1-11.33-1.822,14.886,14.886,0,0,1-2.63-1.012,53.024,53.024,0,0,0,6.68-6.68,0.81,0.81,0,0,0,.6-0.2,0.649,0.649,0,0,0,.41-0.607,0.825,0.825,0,0,0-.41-1.013Zm-12.96,5.466h7.49a26.363,26.363,0,0,1-4.05,3.239,26.268,26.268,0,0,1-3.44-3.239h0ZM1100.8,413.915h-3.15v3.036h-11.06v6.8h3.4v-3.644h19.56v3.279h3.4v-6.437h-11.66v-1.943a1.494,1.494,0,0,0,.49-0.486c0.16-.4-0.17-0.607-0.98-0.607h0Zm7.78,8.016h-17.74v3.4h17.74v-3.4Zm4.73,5.465h-27.08v3.644h7.89v1.336a5.946,5.946,0,0,1-3.15,5.1,13.083,13.083,0,0,1-5.11,1.579l1.1,3.887a15.291,15.291,0,0,0,6.8-2.794,10.461,10.461,0,0,0,3.76-5.1,7.167,7.167,0,0,0,.25-1.822V431.04h3.16v8.38a2.264,2.264,0,0,0,2.42,2.551h7.41a2.579,2.579,0,0,0,1.83-.85,4.78,4.78,0,0,0,.97-2.308l0.36-3.279-3.76-.365-0.25,1.822a1.762,1.762,0,0,1-.6,1.458,1.126,1.126,0,0,1-.49.121h-3.52a0.614,0.614,0,0,1-.61-0.243,1.362,1.362,0,0,1-.12-0.607v-6.68h8.74V427.4Zm21.82-13.6-3.04-.121a17.6,17.6,0,0,1-5.59,7.287,20.209,20.209,0,0,1-6.92,3.887l1.94,3.279a30.018,30.018,0,0,0,3.53-1.943v1.457h7.28v2.915h-7.89v3.4h7.89V437.6h-11.41V441h26.11v-3.4h-11.3v-3.644h7.9v-3.4h-7.9v-2.915h7.17V425.7c0.97,0.567,2.14,1.175,3.52,1.822l1.95-3.644a29.777,29.777,0,0,1-8.87-4.615,17.867,17.867,0,0,1-4.13-4.008c0.08-.162.16-0.323,0.24-0.486a0.763,0.763,0,0,0,.49-0.364c0.16-.243.04-0.445-0.37-0.608h-0.6Zm-1.34,4.13a31.77,31.77,0,0,0,4.62,4.858c0.64,0.486,1.33.972,2.06,1.457h-12.51a27.58,27.58,0,0,0,4.86-4.858,7.682,7.682,0,0,0,.97-1.457h0Zm27.04-4.737a21.1,21.1,0,0,0,0,30.121l2.18-1.943a17.944,17.944,0,0,1,0-26.235Zm26.55,7.166-2.67,1.822a54.293,54.293,0,0,1,4.98,7.894,31.943,31.943,0,0,1,3.03,8.138l3.89-1.093a34.952,34.952,0,0,0-3.4-8.5,50.872,50.872,0,0,0-5.83-8.259h0Zm5.95-1.458a1.662,1.662,0,0,1-1.22-.485,1.787,1.787,0,0,1,0-2.672,1.667,1.667,0,0,1,1.22-.486,1.849,1.849,0,0,1,1.33.607,1.629,1.629,0,0,1,.49,1.215,1.685,1.685,0,0,1-1.82,1.821h0Zm0-5.587A3.729,3.729,0,1,0,1196,414.4a3.636,3.636,0,0,0-2.67-1.094h0Zm-14.82,9.231-2.91-1.215a43.033,43.033,0,0,1-3.4,9.231,27.027,27.027,0,0,1-4.13,6.194l3.03,2.429a41.416,41.416,0,0,0,7.78-15.3c0.48,0,.72-0.161.72-0.486a1.556,1.556,0,0,0-1.09-.85h0Zm47.32-4.858h-22.35V429.1h3.65v-8.016h14.81a21.355,21.355,0,0,1-2.43,10.323q-2.43,4.254-9.71,6.8l2.79,3.158q6.93-3.034,10.08-8.259t3.16-15.425h0Zm33.96,12.267V426.3h-28.06v3.644h28.06Zm25.82-8.745h-20.16v3.644h16.27v9.716h-16.27v3.644h16.27v0.85h3.89V421.2Zm35.05,8.745V426.3h-28.05v3.644h28.05Zm10.76-14.575h-3.15V441h3.64V428a27.9,27.9,0,0,1,4.98,1.7,53.019,53.019,0,0,1,4.74,2.429l1.82-2.915q-2.925-1.577-5.71-2.793a41.137,41.137,0,0,0-5.83-1.944v-8.016a0.693,0.693,0,0,0,.49-0.728,0.943,0.943,0,0,0-.98-0.365h0Zm10.81-1.822-1.94,1.579q1.1,1.093,2.31,2.186a15.917,15.917,0,0,1,2.18,2.43l2.07-1.944a22.44,22.44,0,0,0-4.62-4.251h0Zm-3.03,2.308-2.07,1.579a24.7,24.7,0,0,1,4.62,4.615l2.06-1.822a15.057,15.057,0,0,0-1.94-2.064q-1.575-1.335-2.67-2.308h0Zm20.35,12.388a20.558,20.558,0,0,0-6.31-15.06l-2.19,1.943a17.922,17.922,0,0,1,0,26.235l2.19,1.943a20.556,20.556,0,0,0,6.31-15.061h0Zm34.21-.121-8.75-8.745-2.31,2.429,1.34,1.336h-17.49v3.4h21.13l1.58,1.579-1.58,1.579h-21.13v3.4h17.49l-1.22,1.214,2.19,2.551Zm10.03,0.607a3.47,3.47,0,0,1,5.58-1.093c0.81,0.811,1.22,2.186,1.22,4.13,0,2.186-.41,3.685-1.22,4.494a3.119,3.119,0,0,1-2.3.971,2.648,2.648,0,0,1-1.95-.729,6.13,6.13,0,0,1-1.45-3.886h-3.16a9.81,9.81,0,0,0,2.43,5.951,5.585,5.585,0,0,0,4.13,1.579,6.237,6.237,0,0,0,4.61-1.822q2.07-2.064,2.07-6.558,0-4.251-2.07-6.316a5.344,5.344,0,0,0-3.88-1.7,5.826,5.826,0,0,0-3.65,1.214l0.61-6.923h7.77v-2.915H1401.6l-0.85,13.6h3.04Zm-259.04,48.1-2.68-1.093-1.94,4.372,1.09,0.486h-4.49l1.21-.85a14.892,14.892,0,0,0-3.03-3.522l-2.55,2.064a14.264,14.264,0,0,1,1.94,2.308h-4.13v11.174h18.22V480.594h-4.62l1.22-2.672c0.4,0,.61-0.08.61-0.243a1.382,1.382,0,0,0-.85-0.85h0Zm-17.86-.365h-2.91V484h-3.28v3.158h3.28v9.109l-3.65.607,0.73,2.915a0.688,0.688,0,1,0,1.22.486l8.86-2.308-0.36-3.158-3.4.729v-8.38h2.31V484h-2.31v-6.559c0.65-.565.48-0.89-0.49-0.972h0Zm10.69,7.045v1.214h-4.01v-1.214h4.01Zm7.41,0v1.214h-4.01v-1.214h4.01Zm-7.41,4.129v1.215h-4.01v-1.215h4.01Zm7.41,0v1.215h-4.01v-1.215h4.01Zm1.94,4.859h-15.18v12.267h3.4v-0.851h8.38v0.729h3.4V492.5Zm-3.4,2.915v1.336h-8.38v-1.336h8.38Zm0,4.25V501h-8.38v-1.337h8.38Zm38.94-9.352-8.74-8.744L1171.42,484l1.33,1.336h-17.49v3.4h21.14l1.58,1.579-1.58,1.579h-21.14v3.4h17.49l-1.21,1.215,2.19,2.55Zm22.3-1.579v-10.08h-3.4v10.08h-9.6v3.28h9.6v10.081h3.4V492.011h9.59v-3.28h-9.59Zm21.93,2.187a3.478,3.478,0,0,1,5.59-1.093c0.81,0.81,1.22,2.186,1.22,4.129,0,2.186-.41,3.685-1.22,4.494a3.158,3.158,0,0,1-2.31.972,2.624,2.624,0,0,1-1.94-.729,6.137,6.137,0,0,1-1.46-3.887h-3.15a9.872,9.872,0,0,0,2.42,5.952,5.6,5.6,0,0,0,4.13,1.579,6.264,6.264,0,0,0,4.62-1.822c1.38-1.376,2.06-3.562,2.06-6.559,0-2.833-.68-4.938-2.06-6.316a5.366,5.366,0,0,0-3.89-1.7,5.793,5.793,0,0,0-3.64,1.215l0.61-6.923h7.77v-2.915h-10.93l-0.85,13.6h3.03Zm19.75,6.923h-3.88v3.886h1.45l-0.85,3.765H1245l1.45-4.251v-3.4ZM1259.04,484a5.421,5.421,0,0,0-4.01,1.457,7.6,7.6,0,0,0-1.95,4.98h3.41q0.6-3.279,2.79-3.279a2.146,2.146,0,0,1,1.58.607,2.231,2.231,0,0,1,.73,1.579c0,0.81-.57,1.3-1.7,1.457a10.431,10.431,0,0,0-5.47,2.429,5.732,5.732,0,0,0-.12,7.774,4.454,4.454,0,0,0,3.28,1.336,6.416,6.416,0,0,0,4.01-1.7,7.649,7.649,0,0,0,.48,1.458h3.28a9.581,9.581,0,0,1-.73-3.523v-8.5a6.127,6.127,0,0,0-1.45-4.493,5.6,5.6,0,0,0-4.13-1.579h0Zm2.43,13.238a3.7,3.7,0,0,1-2.92,1.944,2.28,2.28,0,0,1-1.7-.608,2.115,2.115,0,0,1-.61-1.579,2.933,2.933,0,0,1,.97-2.064q1.215-1.213,4.26-1.336v3.643Zm19.5-2.064a3.774,3.774,0,0,1-1.09,2.793,2.823,2.823,0,0,1-2.07.85,2.335,2.335,0,0,1-1.7-.728,3.182,3.182,0,0,1-.73-2.308v-11.66h-3.15V495.9q0,3.525,1.45,4.98a4.617,4.617,0,0,0,3.4,1.336,4.425,4.425,0,0,0,3.89-2.308v2.187h3.16V484.116h-3.16v11.053ZM1303.03,484a3.206,3.206,0,0,0-2.92,1.579,4.381,4.381,0,0,0-3.52-1.579,4.931,4.931,0,0,0-3.64,1.457,5.425,5.425,0,0,0-1.46,4.008,5.312,5.312,0,0,0,1.21,3.522,2.892,2.892,0,0,0-1.82,2.794,3.051,3.051,0,0,0,1.46,2.672,5.435,5.435,0,0,0-1.09.85,2.778,2.778,0,0,0-.73,2.065,3.774,3.774,0,0,0,1.09,2.793c1.13,1.133,2.92,1.7,5.34,1.7,2.51,0,4.34-.568,5.47-1.7a4.1,4.1,0,0,0,1.09-3.036,3.444,3.444,0,0,0-.97-2.551c-0.73-.728-2.06-1.133-4.01-1.214a10.6,10.6,0,0,1-3.15-.486,4.083,4.083,0,0,1-1.7-.85,1.144,1.144,0,0,1-.37-0.85,0.834,0.834,0,0,1,.24-0.608,0.934,0.934,0,0,1,.85-0.121,6.927,6.927,0,0,0,2.31.486,4.746,4.746,0,0,0,3.52-1.336,5.553,5.553,0,0,0,1.46-4.13,5.874,5.874,0,0,0-.61-2.429,3.676,3.676,0,0,1,2.92-.364V484h-0.97Zm-6.44,2.915a1.631,1.631,0,0,1,1.21.485,3.286,3.286,0,0,1,0,4.13,1.749,1.749,0,0,1-2.42,0,3.286,3.286,0,0,1,0-4.13,1.631,1.631,0,0,1,1.21-.485h0ZM1293.55,501a1.5,1.5,0,0,1,.37-1.094,1.524,1.524,0,0,1,.73-0.364,16.438,16.438,0,0,0,3.76.486,2.367,2.367,0,0,1,1.7.486,1.161,1.161,0,0,1,0,1.7,4.189,4.189,0,0,1-2.91.729,4.488,4.488,0,0,1-3.16-.85,1.53,1.53,0,0,1-.49-1.093h0Zm40.35-23.927-2.79-.972q-0.735,3.16-1.58,5.951c-2.03.082-4.09,0.122-6.2,0.122l0.37,3.644q1.815,0,4.74-.243a32.54,32.54,0,0,1-2.07,5.1,57.928,57.928,0,0,1-3.4,6.073l3.16,1.943a70.136,70.136,0,0,0,3.28-6.8q1.935-4.614,2.67-6.68,2.79-.364,5.71-0.85l-0.61-3.522c-1.38.324-2.71,0.607-4.01,0.85,0.33-1.133.65-2.266,0.97-3.4,0.49-.079.69-0.243,0.61-0.486a0.909,0.909,0,0,0-.85-0.728h0Zm15.43,7.53a39.009,39.009,0,0,0-8.75-3.887l-1.46,2.672a57.434,57.434,0,0,1,8.75,4.13Zm-7.05,2.793h-2.91v7.166a9.207,9.207,0,0,0-6.68.729,4.393,4.393,0,0,0-2.43,3.887,4.193,4.193,0,0,0,1.82,3.765,7.275,7.275,0,0,0,4.13,1.214,6.63,6.63,0,0,0,4.86-1.579,5.747,5.747,0,0,0,1.58-3.522,28.794,28.794,0,0,1,4.85,2.551l1.83-2.915a27.731,27.731,0,0,0-6.56-3.279v-7.045a1,1,0,0,0,.36-0.607,0.782,0.782,0,0,0-.85-0.365h0Zm-5.95,10.2a14.085,14.085,0,0,1,1.7.121,5.33,5.33,0,0,1,1.34.243,3.589,3.589,0,0,1-.85,2.308,3.4,3.4,0,0,1-2.07.729,4.676,4.676,0,0,1-2.06-.365,1.4,1.4,0,0,1-.85-1.214,1.5,1.5,0,0,1,.6-1.215,3.1,3.1,0,0,1,2.19-.607h0Zm38.82-12.267a65.713,65.713,0,0,0-9.11,2.55c-0.24-2.994-.41-6.112-0.49-9.352a0.682,0.682,0,0,0,.49-0.729c-0.08-.322-0.49-0.485-1.22-0.485h-2.79q0,2.914.12,6.558a36.547,36.547,0,0,0,.49,5.466,17.276,17.276,0,0,0-4.5,3.158,6.288,6.288,0,0,0-2.06,4.493,5.893,5.893,0,0,0,1.7,4.373q1.7,1.7,5.22,1.7h12.76l0.24-3.4h-12.51a5.882,5.882,0,0,1-2.92-.485,2.5,2.5,0,0,1-.97-2.308q0-2.306,4.74-4.737a31,31,0,0,1,11.9-3.279Zm-0.12-9.109-1.58,1.7a31.348,31.348,0,0,1,5.22,3.4l1.7-1.944q-2.79-1.7-5.34-3.157h0Zm-2.43,2.307-1.58,1.822a26.034,26.034,0,0,1,5.22,3.4l1.7-1.944a21.214,21.214,0,0,0-5.34-3.279h0ZM1128.86,527.8h-2.92v4.615h-11.17a17.8,17.8,0,0,0-3.64-3.158l-2.43,2.429a20.636,20.636,0,0,1,4.25,4.008l1.82-1.821v11.416a14.048,14.048,0,0,1-3.28,9.231l2.92,2.186a15.743,15.743,0,0,0,3.28-6.923,22.591,22.591,0,0,0,.48-4.615v-9.6h7.77a50.635,50.635,0,0,0,1.58,12.631c-0.48.568-1.01,1.135-1.58,1.7V541.16h-7.28v10.567h2.91v-1.579h4.13a28.428,28.428,0,0,1-6.44,3.643l2.19,2.915a29.136,29.136,0,0,0,5.1-3.158,8.343,8.343,0,0,0,2.07-2.064,14.7,14.7,0,0,0,3.03,4.251c1.05,0.89,2.03,1.051,2.92.485q1.215-1.092,2.18-5.829l-3.03-1.7-0.73,2.551c-0.16.486-.36,0.486-0.61,0-0.48-.972-0.89-1.822-1.21-2.551a61.079,61.079,0,0,0,3.52-9.23,0.732,0.732,0,0,0,.49-0.122,0.6,0.6,0,0,0-.13-0.607,4.405,4.405,0,0,0-.85-0.607l-2.3-1.094a35.619,35.619,0,0,1-1.95,6.438,38.064,38.064,0,0,1-.6-7.895h6.07v-3.158h-2.79l1.57-1.214a13.55,13.55,0,0,0-2.91-2.794l-1.94,1.579v-1.215c0.64-.565.48-0.89-0.49-0.971h0Zm0.49,2.429a3.457,3.457,0,0,1,.85.607,6.316,6.316,0,0,1,1.21,1.336h-2.06v-1.943Zm-19.92,6.073-1.95,2.672a16.453,16.453,0,0,1,4.5,3.886l2.18-2.915a18.4,18.4,0,0,0-1.82-1.821,10.494,10.494,0,0,0-2.91-1.822h0Zm16.27,0.607h-7.16v3.158h7.16v-3.158Zm-11.29,8.988-2.8-1.7a69.279,69.279,0,0,1-4.86,9.96l2.43,2.064a1.142,1.142,0,0,0,.49.122c0.4-.082.53-0.364,0.36-0.85a61.415,61.415,0,0,0,4.38-9.595h0Zm8.62-1.822v3.158h-1.46v-3.158h1.46Zm46.47-1.943-8.75-8.745-2.3,2.429,1.33,1.336h-17.49v3.4h21.14l1.58,1.579-1.58,1.578h-21.14v3.4h17.49l-1.21,1.215,2.18,2.55Zm32.38,1.7v-3.279h-23.56v3.279h23.56Zm11.85-1.093a3.478,3.478,0,0,1,5.59-1.093c0.81,0.81,1.21,2.186,1.21,4.129,0,2.186-.4,3.686-1.21,4.494a3.158,3.158,0,0,1-2.31.972,2.624,2.624,0,0,1-1.94-.729,6.135,6.135,0,0,1-1.46-3.887h-3.16a9.936,9.936,0,0,0,2.43,5.952,5.589,5.589,0,0,0,4.13,1.579,6.28,6.28,0,0,0,4.62-1.822q2.055-2.064,2.06-6.559,0-4.25-2.06-6.315a5.367,5.367,0,0,0-3.89-1.7,5.793,5.793,0,0,0-3.64,1.215l0.6-6.923h7.78v-2.915h-10.93l-0.85,13.6h3.03Zm19.75,6.923h-3.88v3.886h1.45l-0.85,3.766h1.82l1.46-4.251v-3.4Zm13.19-22.47a21.129,21.129,0,0,0,0,30.122l2.19-1.944a17.921,17.921,0,0,1,0-26.234Zm17.32,15.425a14.067,14.067,0,0,1,2.31-1.457,5.107,5.107,0,0,1,2.31-.486q3.03,0,3.03,3.158a10.1,10.1,0,0,1-1.94,5.83,19.181,19.181,0,0,1-5.71,5.344V542.617Zm0-13.846h-1.09V556.1h1.21a27.95,27.95,0,0,0,7.17-5.83q2.79-3.279,2.79-6.194a4.608,4.608,0,0,0-1.33-3.4,4.68,4.68,0,0,0-3.4-1.457,5.91,5.91,0,0,0-2.68.607q-0.72.365-2.67,1.579V528.771Zm27.89,13.968a3.469,3.469,0,0,1,5.58-1.093c0.81,0.81,1.22,2.186,1.22,4.129,0,2.186-.41,3.686-1.22,4.494a3.12,3.12,0,0,1-2.3.972,2.648,2.648,0,0,1-1.95-.729,6.133,6.133,0,0,1-1.45-3.887h-3.16a9.815,9.815,0,0,0,2.43,5.952,5.589,5.589,0,0,0,4.13,1.579,6.241,6.241,0,0,0,4.61-1.822q2.07-2.064,2.07-6.559,0-4.25-2.07-6.315a5.345,5.345,0,0,0-3.88-1.7,5.821,5.821,0,0,0-3.65,1.215l0.61-6.923h7.77v-2.915h-10.93l-0.85,13.6h3.04Zm24.12-.486a20.57,20.57,0,0,0-6.32-15.061l-2.18,1.944a17.921,17.921,0,0,1,0,26.234l2.18,1.944a20.567,20.567,0,0,0,6.32-15.061h0Zm30.87-13.36-2.79-.972c-0.49,2.107-1.01,4.09-1.58,5.952-2.02.081-4.09,0.121-6.19,0.121l0.36,3.644c1.22,0,2.79-.08,4.74-0.243a32.54,32.54,0,0,1-2.07,5.1,57.928,57.928,0,0,1-3.4,6.073l3.16,1.943a70.021,70.021,0,0,0,3.28-6.8c1.29-3.076,2.19-5.3,2.67-6.68,1.86-.243,3.77-0.525,5.71-0.85l-0.61-3.522c-1.38.325-2.71,0.607-4.01,0.85,0.33-1.133.65-2.266,0.98-3.4,0.48-.079.68-0.243,0.6-0.485a0.908,0.908,0,0,0-.85-0.729h0Zm15.43,7.53a38.763,38.763,0,0,0-8.75-3.886l-1.45,2.672a57.614,57.614,0,0,1,8.74,4.129Zm-7.05,2.794h-2.91v7.165a9.214,9.214,0,0,0-6.68.729,4.393,4.393,0,0,0-2.43,3.887,4.215,4.215,0,0,0,1.82,3.765,7.3,7.3,0,0,0,4.13,1.215,6.619,6.619,0,0,0,4.86-1.579,5.749,5.749,0,0,0,1.58-3.523,28.848,28.848,0,0,1,4.86,2.551l1.82-2.915a27.731,27.731,0,0,0-6.56-3.279v-7.045a1,1,0,0,0,.36-0.607,0.781,0.781,0,0,0-.85-0.364h0Zm-5.95,10.2a14.293,14.293,0,0,1,1.7.121,5.257,5.257,0,0,1,1.34.243,3.587,3.587,0,0,1-.85,2.308,3.4,3.4,0,0,1-2.07.729,4.676,4.676,0,0,1-2.06-.365,1.4,1.4,0,0,1-.85-1.214,1.486,1.486,0,0,1,.61-1.215,3.052,3.052,0,0,1,2.18-.607h0Zm38.82-12.267a66.1,66.1,0,0,0-9.11,2.55c-0.24-2.994-.41-6.112-0.49-9.352a0.681,0.681,0,0,0,.49-0.728,1.09,1.09,0,0,0-1.21-.486H1375q0,2.914.12,6.558a36.533,36.533,0,0,0,.49,5.466,17.05,17.05,0,0,0-4.49,3.158,6.263,6.263,0,0,0-2.07,4.494,5.929,5.929,0,0,0,1.7,4.372q1.7,1.7,5.22,1.7h12.76l0.24-3.4h-12.51a5.879,5.879,0,0,1-2.92-.486,2.522,2.522,0,0,1-.97-2.308q0-2.306,4.74-4.737a31.02,31.02,0,0,1,11.9-3.279Zm-0.12-9.109-1.58,1.7a31.348,31.348,0,0,1,5.22,3.4l1.7-1.943q-2.79-1.7-5.34-3.158h0Zm-2.43,2.307-1.58,1.822a26.08,26.08,0,0,1,5.22,3.4l1.7-1.943a21.184,21.184,0,0,0-5.34-3.28h0Z"/>
  <path id="_3度_長3_なし_短3_m_長2_sus2_完全4_sus4_" data-name="3度 長3⇒なし 短3⇒m 長2⇒sus2 完全4⇒sus4 " class="cls-7" d="M1010.11,692.832a10.625,10.625,0,0,0-2.89-7.861,10.111,10.111,0,0,0-7.45-2.9,9.574,9.574,0,0,0-7.034,2.9q-3.312,3.312-3.724,10.137h5.379q-0.209-4.548,2.069-6.827a5.035,5.035,0,0,1,6.62,0,6.164,6.164,0,0,1,1.65,4.551q0,7.448-7.65,6.62v6.206q4.137-.413,6.41,1.862a7.592,7.592,0,0,1,2.28,5.585,7.283,7.283,0,0,1-1.86,5.379,5.631,5.631,0,0,1-4.14,1.655,5.03,5.03,0,0,1-3.724-1.448q-2.483-2.483-2.482-8.068h-5.379q0.621,8.275,3.724,11.378a10.4,10.4,0,0,0,7.654,3.1,10.921,10.921,0,0,0,8.067-3.1,12.073,12.073,0,0,0,3.52-8.9q0-6-5.17-10.757a12.249,12.249,0,0,0,4.13-9.516h0Zm48.12-1.448h-4.55v3.724h-8.07v-2.069c1.24-.963,1.1-1.516-0.41-1.655h-4.97v3.724h-7.44v4.964h7.44v8.275h5.38V706.9h8.07v1.035h5.38v-7.862h10.55v-4.964h-10.55v-2.069c1.1-.963.83-1.516-0.83-1.655h0Zm-9.1-11.171h-4.97v5.379h-17.58v25.445a28.863,28.863,0,0,1-1.45,8.274,15.364,15.364,0,0,1-3.31,5.586l4.55,4.137q6.21-7.656,6-19.859v-18.2h36.62v-5.378h-19.03v-3.517a2.337,2.337,0,0,0,.82-0.828q0.42-1.032-1.65-1.034h0Zm4.55,19.859v1.862h-8.07v-1.862h8.07Zm6.83,8.689-0.83.621h-25.03v4.964h6.41a25.411,25.411,0,0,0,4.97,6,12.413,12.413,0,0,1-3.52,1.448,67.448,67.448,0,0,1-11.59,1.862l2.07,6.206a38.723,38.723,0,0,0,18-6,51.373,51.373,0,0,0,17.17,5.378l2.28-6a56.4,56.4,0,0,1-11.59-1.862,15.806,15.806,0,0,1-2.69-1.034,53.525,53.525,0,0,0,6.83-6.827,0.849,0.849,0,0,0,.62-0.207,0.663,0.663,0,0,0,.41-0.62,0.84,0.84,0,0,0-.41-1.035Zm-13.24,5.585h7.65a26.51,26.51,0,0,1-4.14,3.31,26.652,26.652,0,0,1-3.51-3.31h0Zm-81.521,30.038H940.593v17.874h-7.944v4.3h7.944v10.427l-5.958.662,1.324,4.468q0.33,1.323,1.159.993a1.825,1.825,0,0,0,.662-0.827l17.542-3.476-0.993-4.137-9.1,1.655V766.56h4.138q4.963,12.083,19.694,15.226l2.317-4.8a50.4,50.4,0,0,1-8.937-2.648,13.27,13.27,0,0,1-2.152-1.159l4.3-2.979a1.228,1.228,0,0,0,1.324-.331c0.331-.331.166-0.77-0.5-1.324l-2.483-1.986h7.779v-4.3H945.227v-1.821h18.205v-3.972H945.227v-1.986h18.039v-3.972H945.227v-1.82h20.522v-4.3ZM954,766.56h7.282l-4.634,3.807a5.258,5.258,0,0,1-1.655-1.821A8.3,8.3,0,0,1,954,766.56h0Zm42.8-13.074a8.5,8.5,0,0,0-2.317-6.289,8.079,8.079,0,0,0-5.958-2.317,7.664,7.664,0,0,0-5.627,2.317q-2.649,2.651-2.979,8.11h4.3q-0.166-3.639,1.655-5.462a4.027,4.027,0,0,1,5.3,0,4.928,4.928,0,0,1,1.324,3.641q0,5.958-6.124,5.3v4.965a5.836,5.836,0,0,1,6.951,5.958,5.824,5.824,0,0,1-1.489,4.3,4.489,4.489,0,0,1-3.31,1.324,4.026,4.026,0,0,1-2.979-1.159q-1.986-1.986-1.986-6.454h-4.3q0.5,6.621,2.979,9.1a8.319,8.319,0,0,0,6.123,2.483,8.733,8.733,0,0,0,6.455-2.483,9.647,9.647,0,0,0,2.813-7.116,11.47,11.47,0,0,0-4.137-8.606,9.786,9.786,0,0,0,3.31-7.613h0Zm47.264,9.434L1032.15,751l-3.15,3.31,1.82,1.82h-23.83v4.634h28.8l2.15,2.152-2.15,2.151h-28.8v4.634h23.83l-1.65,1.655,2.98,3.475Zm23.77-18.04-3.81-1.323q-0.99,4.305-2.15,8.109-4.14.166-8.44,0.165l0.49,4.965q2.49,0,6.46-.331a43.728,43.728,0,0,1-2.81,6.951,79.417,79.417,0,0,1-4.64,8.275l4.3,2.648a90.982,90.982,0,0,0,4.47-9.268q2.655-6.288,3.64-9.1,3.81-.5,7.78-1.159l-0.83-4.8q-2.8.663-5.46,1.158c0.44-1.543.89-3.087,1.33-4.634,0.66-.108.93-0.331,0.83-0.662a1.249,1.249,0,0,0-1.16-.993h0Zm21.01,10.261a52.917,52.917,0,0,0-11.91-5.3l-1.99,3.641a78.362,78.362,0,0,1,11.92,5.627Zm-9.59,3.807h-3.98v9.764a12.542,12.542,0,0,0-9.1.993,5.979,5.979,0,0,0-3.31,5.3,5.735,5.735,0,0,0,2.48,5.13,9.936,9.936,0,0,0,5.63,1.655q4.47,0,6.62-2.151a7.784,7.784,0,0,0,2.15-4.8,38.852,38.852,0,0,1,6.62,3.476l2.48-3.972a37.514,37.514,0,0,0-8.93-4.469v-9.6a1.341,1.341,0,0,0,.49-0.828,1.059,1.059,0,0,0-1.15-.5h0Zm-8.11,13.9a19.148,19.148,0,0,1,2.31.166,7.12,7.12,0,0,1,1.82.331,4.858,4.858,0,0,1-1.15,3.144,4.65,4.65,0,0,1-2.82.993,6.415,6.415,0,0,1-2.81-.5,1.924,1.924,0,0,1-1.16-1.655,2.018,2.018,0,0,1,.83-1.655,4.176,4.176,0,0,1,2.98-.828h0Zm32.37-26.148h-4.31v25.155a8.643,8.643,0,0,0,3.48,7.282,12.312,12.312,0,0,0,8.44,2.152q8.445-.5,15.72-8.441l-3.47-3.806q-6.8,7.284-12.75,7.282c-2.64,0-4.36-.44-5.13-1.324a5.523,5.523,0,0,1-1.32-3.807v-23a0.93,0.93,0,0,0,.66-0.993,1.252,1.252,0,0,0-1.32-.5h0ZM985,831.6h4.633V818.526H971.921v13.405h4.634V831.1H985v0.5Zm-22.342-24-3.476-.993a37.4,37.4,0,0,1-2.648,8.772,17.126,17.126,0,0,1-2.482,4.137l2.979,3.31a29.9,29.9,0,0,0,3.31-5.792H961v6.123H954.71v4.3H961v1.324a16.944,16.944,0,0,1-6.289,13.571l2.482,4.3a20.909,20.909,0,0,0,7.282-11.253,11.1,11.1,0,0,1,2.648,3.641,3.729,3.729,0,0,1,.5,1.158h-0.33v4.3H993.27v-4.3h-7.281q0.659-2.148,1.82-6.454a0.956,0.956,0,0,0,.662-0.166,0.408,0.408,0,0,0,0-.5,1.318,1.318,0,0,0-1.158-.662l-3.972-.993a28.4,28.4,0,0,1-1.986,8.771h-4.3l3.641-1.158q-1.327-3.639-2.648-6.62l-4.138,1.158a21.487,21.487,0,0,1,2.317,6.62H968.28l3.145-2.979a40.487,40.487,0,0,0-5.792-6.785v-2.979h5.626v-4.3h-5.626v-6.123H969.6v-4.3h-7.612l1.158-3.641c0.44,0,.662-0.109.662-0.331a0.545,0.545,0,0,0-.165-0.662,2.143,2.143,0,0,0-.993-0.5h0Zm29.292,2.648H970.1v4.634h21.845v-4.634ZM985,822.5v4.634h-8.441V822.5H985Zm33.694-5.461a8.481,8.481,0,0,0-2.32-6.289,8.053,8.053,0,0,0-5.95-2.317,7.657,7.657,0,0,0-5.63,2.317q-2.655,2.649-2.98,8.109h4.3q-0.165-3.637,1.66-5.461a4.019,4.019,0,0,1,5.29,0,4.9,4.9,0,0,1,1.33,3.641q0,5.958-6.13,5.3V827.3a5.851,5.851,0,0,1,6.96,5.958,5.835,5.835,0,0,1-1.49,4.3,4.5,4.5,0,0,1-3.31,1.324,4.018,4.018,0,0,1-2.98-1.158q-2-1.986-1.99-6.455h-4.3q0.5,6.621,2.98,9.1a8.3,8.3,0,0,0,6.12,2.482,8.71,8.71,0,0,0,6.45-2.482,9.63,9.63,0,0,0,2.82-7.117,11.463,11.463,0,0,0-4.14-8.606,9.77,9.77,0,0,0,3.31-7.612h0Zm47.27,9.433-11.92-11.916-3.14,3.31,1.82,1.821h-23.83v4.634h28.79l2.15,2.151-2.15,2.151h-28.79v4.634h23.83l-1.66,1.655,2.98,3.476Zm24.26-4.634c-1.44-2.648-3.31-3.972-5.63-3.972q-2.82,0-4.96,2.979V818.03h-4.31v24.493h4.31V826.47a5.013,5.013,0,0,1,1.82-3.31,3.161,3.161,0,0,1,2.31-.993,2.9,2.9,0,0,1,2.15.828,4.012,4.012,0,0,1,1,2.978v16.55h4.3V826.8a4.753,4.753,0,0,1,1.66-3.31,3.8,3.8,0,0,1,2.64-1.324,2.935,2.935,0,0,1,2.16.828,4.309,4.309,0,0,1,.99,3.144v16.384h4.3V824.484a6.747,6.747,0,0,0-1.98-4.965,5.647,5.647,0,0,0-4.14-1.655q-3.645,0-6.62,3.972h0ZM955.14,860.893H929.985v17.874h-7.944v4.3h7.944V893.5l-5.958.662,1.324,4.468q0.329,1.323,1.158.993a1.819,1.819,0,0,0,.662-0.827l17.543-3.476-0.993-4.137-9.1,1.655V883.07h4.138q4.965,12.082,19.694,15.225l2.317-4.8a50.423,50.423,0,0,1-8.937-2.648,13.183,13.183,0,0,1-2.151-1.159l4.3-2.979a1.228,1.228,0,0,0,1.324-.331c0.331-.331.166-0.77-0.5-1.324l-2.482-1.985h7.778v-4.3H934.618v-1.821h18.2v-3.972h-18.2v-1.986h18.04v-3.972h-18.04V865.2H955.14v-4.3ZM943.39,883.07h7.282l-4.634,3.806a5.248,5.248,0,0,1-1.655-1.821,8.28,8.28,0,0,1-.993-1.985h0Zm34.688-21.68a7.2,7.2,0,0,0-5.3,2.151q-3.476,3.475-3.476,9.93h4.3q0.163-8.107,4.469-8.11a4.043,4.043,0,0,1,2.979,1.159,5.406,5.406,0,0,1,1.324,3.972q0,4.635-5.3,9.93a38.7,38.7,0,0,0-8.11,11.584v3.641h17.377v-3.972H974.271a32.471,32.471,0,0,1,6.455-8.771q5.958-5.958,5.957-12.578a8.989,8.989,0,0,0-2.647-6.619,8.075,8.075,0,0,0-5.958-2.317h0Zm55.372,18.039-11.91-11.916-3.15,3.31,1.82,1.82H996.382v4.634h28.8l2.15,2.152-2.15,2.151h-28.8v4.634h23.828l-1.65,1.655,2.98,3.475Zm16.98-8.606a7.819,7.819,0,0,0-5.79,2.151,6.755,6.755,0,0,0-1.99,4.965,6.01,6.01,0,0,0,1.66,4.469q1.485,1.489,5.46,2.482,4.305,1.16,4.3,3.475a2.908,2.908,0,0,1-.82,2.152,3.6,3.6,0,0,1-2.65.993,3.364,3.364,0,0,1-2.48-.993c-0.78-.771-1.22-2.206-1.33-4.3h-4.63q0.165,4.965,2.65,7.447a7.6,7.6,0,0,0,5.62,2.152q4.14,0,6.13-1.986a6.831,6.831,0,0,0,2.15-4.965,6.282,6.282,0,0,0-1.66-4.634,11.717,11.717,0,0,0-5.13-2.648q-4.635-1.323-4.63-3.641a2.882,2.882,0,0,1,.83-2.151,2.943,2.943,0,0,1,2.15-.662,3,3,0,0,1,2.15.993,5.489,5.489,0,0,1,1.16,2.979h4.63a10.63,10.63,0,0,0-2.81-6.455,6.731,6.731,0,0,0-4.97-1.82h0Zm28.9,15.225a5.164,5.164,0,0,1-1.49,3.807,3.821,3.821,0,0,1-2.81,1.158,3.167,3.167,0,0,1-2.32-.993,4.306,4.306,0,0,1-.99-3.144V870.988h-4.31v16.053q0,4.8,1.99,6.786a6.258,6.258,0,0,0,4.63,1.82,6.035,6.035,0,0,0,5.3-3.144v2.979h4.3V870.988h-4.3v15.06Zm21.28-15.225a7.819,7.819,0,0,0-5.79,2.151,6.716,6.716,0,0,0-1.99,4.965,6.01,6.01,0,0,0,1.66,4.469q1.485,1.489,5.46,2.482,4.3,1.16,4.3,3.475a2.877,2.877,0,0,1-.83,2.152,3.562,3.562,0,0,1-2.64.993,3.387,3.387,0,0,1-2.49-.993q-1.155-1.157-1.32-4.3h-4.63c0.1,3.31.99,5.792,2.64,7.447a7.627,7.627,0,0,0,5.63,2.152q4.14,0,6.12-1.986a6.8,6.8,0,0,0,2.16-4.965,6.282,6.282,0,0,0-1.66-4.634,11.717,11.717,0,0,0-5.13-2.648q-4.635-1.323-4.63-3.641a2.914,2.914,0,0,1,.82-2.151,2.97,2.97,0,0,1,2.16-.662,3.019,3.019,0,0,1,2.15.993,5.489,5.489,0,0,1,1.16,2.979h4.63a10.63,10.63,0,0,0-2.81-6.455,6.731,6.731,0,0,0-4.97-1.82h0Zm26.08-9.433a7.192,7.192,0,0,0-5.29,2.151q-3.48,3.475-3.48,9.93h4.3q0.165-8.107,4.47-8.11a4.027,4.027,0,0,1,2.98,1.159,5.412,5.412,0,0,1,1.33,3.972q0,4.635-5.3,9.93a38.843,38.843,0,0,0-8.11,11.584v3.641h17.38v-3.972h-12.08a32.4,32.4,0,0,1,6.45-8.771q5.955-5.958,5.96-12.578a9,9,0,0,0-2.65-6.619,8.076,8.076,0,0,0-5.96-2.317h0ZM919.1,913.024h-4.3v4.138h-15.06v9.267h4.634v-4.964h26.645v4.468h4.634v-8.771H919.757v-2.648a1.863,1.863,0,0,0,.662-0.662q0.33-.826-1.324-0.828h0Zm10.592,10.923H905.525v4.634h24.162v-4.634Zm6.454,7.447h-36.9v4.965h10.757v1.821a8.109,8.109,0,0,1-4.3,6.951,17.791,17.791,0,0,1-6.951,2.151l1.49,5.3a20.841,20.841,0,0,0,9.267-3.807,14.308,14.308,0,0,0,5.131-6.95,10.291,10.291,0,0,0,.331-2.483v-2.979h4.3v11.419a3.093,3.093,0,0,0,3.31,3.476h10.1a3.486,3.486,0,0,0,2.482-1.159,6.346,6.346,0,0,0,1.324-3.144l0.5-4.468-5.131-.5-0.331,2.483q-0.166,1.656-.827,1.985a1.455,1.455,0,0,1-.662.166h-4.8a0.84,0.84,0,0,1-.828-0.331,1.832,1.832,0,0,1-.165-0.827v-9.1h11.915v-4.965Zm29.723-18.535-4.137-.166a24.066,24.066,0,0,1-7.613,9.93,27.648,27.648,0,0,1-9.433,5.3l2.648,4.468a40.441,40.441,0,0,0,4.8-2.648v1.986h9.93V935.7H951.3v4.634h10.757V945.3H946.5v4.634h35.582V945.3H966.692v-4.965h10.757V935.7H966.692v-3.972h9.764v-2.648q1.986,1.161,4.8,2.483L983.9,926.6a40.619,40.619,0,0,1-12.081-6.289,24.185,24.185,0,0,1-5.627-5.461c0.109-.22.22-0.44,0.331-0.662a1.056,1.056,0,0,0,.662-0.5c0.22-.331.055-0.605-0.5-0.827h-0.828Zm-1.82,5.627a43.236,43.236,0,0,0,6.289,6.62q1.322,0.992,2.813,1.985H956.1a37.478,37.478,0,0,0,6.62-6.619,10.394,10.394,0,0,0,1.324-1.986h0Zm42.8,17.542V914.679h-5.13l-9.6,21.515V940h10.428v8.44h4.3V940h3.31v-3.972h-3.31Zm-10.425,0,6.125-13.736v13.736h-6.125Zm60.335-3.641-11.91-11.915-3.15,3.31,1.83,1.82h-23.84v4.634h28.8l2.15,2.151-2.15,2.152h-28.8v4.634h23.84l-1.66,1.655,2.98,3.475Zm16.98-8.6a7.831,7.831,0,0,0-5.79,2.151,6.747,6.747,0,0,0-1.98,4.965,6.042,6.042,0,0,0,1.65,4.468q1.485,1.49,5.46,2.483,4.305,1.159,4.31,3.475a2.917,2.917,0,0,1-.83,2.152,3.586,3.586,0,0,1-2.65.993,3.364,3.364,0,0,1-2.48-.993c-0.78-.771-1.22-2.206-1.33-4.3h-4.63q0.165,4.965,2.65,7.447a7.6,7.6,0,0,0,5.62,2.151q4.14,0,6.13-1.986a6.827,6.827,0,0,0,2.15-4.964,6.241,6.241,0,0,0-1.66-4.634,11.717,11.717,0,0,0-5.13-2.648q-4.635-1.323-4.63-3.641a2.886,2.886,0,0,1,.83-2.152,2.963,2.963,0,0,1,2.15-.662,3,3,0,0,1,2.15.993,5.419,5.419,0,0,1,1.16,2.979h4.63a10.627,10.627,0,0,0-2.81-6.454,6.727,6.727,0,0,0-4.97-1.82h0Zm28.9,15.225a5.164,5.164,0,0,1-1.49,3.807,3.821,3.821,0,0,1-2.81,1.158,3.167,3.167,0,0,1-2.32-.993,4.306,4.306,0,0,1-.99-3.144V923.947h-4.31V940c0,3.2.67,5.462,1.99,6.785a6.274,6.274,0,0,0,4.63,1.821,6.024,6.024,0,0,0,5.3-3.144v2.978h4.3V923.947h-4.3v15.06Zm21.28-15.225a7.816,7.816,0,0,0-5.79,2.151,6.755,6.755,0,0,0-1.99,4.965,6.047,6.047,0,0,0,1.66,4.468q1.485,1.49,5.46,2.483,4.3,1.159,4.3,3.475a2.91,2.91,0,0,1-.82,2.152,3.6,3.6,0,0,1-2.65.993,3.364,3.364,0,0,1-2.48-.993c-0.78-.771-1.22-2.206-1.33-4.3h-4.63q0.165,4.965,2.65,7.447a7.6,7.6,0,0,0,5.62,2.151q4.14,0,6.13-1.986a6.827,6.827,0,0,0,2.15-4.964,6.282,6.282,0,0,0-1.66-4.634,11.717,11.717,0,0,0-5.13-2.648q-4.635-1.323-4.63-3.641a2.886,2.886,0,0,1,.83-2.152,2.947,2.947,0,0,1,2.15-.662,3,3,0,0,1,2.15.993,5.5,5.5,0,0,1,1.16,2.979h4.63a10.627,10.627,0,0,0-2.81-6.454,6.727,6.727,0,0,0-4.97-1.82h0Zm31.55,12.246V914.679h-5.13l-9.6,21.515V940h10.42v8.44h4.31V940h3.31v-3.972h-3.31Zm-10.43,0,6.12-13.736v13.736h-6.12Z"/>
  <path id="根音_ルート音_1度_" data-name="根音（ルート音）：1度  " class="cls-7" d="M214.924,871.161h-4.557v9.115h-7.216v4.937h7.026a25.1,25.1,0,0,1-2.469,8.545,27.882,27.882,0,0,1-6.076,7.975l3.608,4.367a40.9,40.9,0,0,0,5.127-6.646v16.9h5.317V896.226q1.709,1.522,3.228,3.039l2.658-4.938a22.636,22.636,0,0,0-5.886-4.557v-4.557H221v-4.937h-5.316v-7.6q1.516-1.326-.76-1.519h0Zm29.053,1.709H221.95v36.459l-3.608.569,1.329,4.747a4.068,4.068,0,0,0,.76,1.33,0.821,0.821,0,0,0,.759,0,1.38,1.38,0,0,0,.57-0.95l13.862-3.418-1.33-4.367a29.673,29.673,0,0,0,7.786,7.6,11.323,11.323,0,0,0,3.228,1.709l2.848-5.317a24.614,24.614,0,0,1-8.165-4.937q-0.952-.948-1.9-1.9l5.7-3.987a1.338,1.338,0,0,0,1.139.19l0.38-.38a1.777,1.777,0,0,0-.57-1.519l-3.228-3.228-5.886,4.747a15.969,15.969,0,0,1-1.519-4.937h9.874V872.87Zm-5.317,4.937v3.608H227.267v-3.608H238.66Zm0,8.545v3.988H227.267v-3.988H238.66Zm-11.393,8.925h2.088a26.5,26.5,0,0,0,4.558,11.583l-6.646,1.519v-13.1Zm53.092-24.5H275.8v4.558h-15v4.937h6.076l2.089,5.7H256.433v4.938H300.3v-4.938H288.334l1.9-5.7h6.077v-4.937H281.119V872.3q1.516-1.327-.76-1.52h0Zm3.988,9.5-1.709,5.7h-7.976l-1.9-5.7h11.583ZM292.892,893H264.6v22.787h5.317v-2.279h17.66v1.329h5.317V893Zm-5.317,4.937v2.659h-17.66v-2.659h17.66Zm0,7.6v3.038h-17.66v-3.038h17.66ZM328.7,875.149l-3.228-3.8q-13.1,9.115-13.1,22.407t13.1,22.406l3.228-3.8q-11.015-7.023-11.013-18.609T328.7,875.149h0Zm35.813,1.329H359.58v31.331l-0.949.38,4.937,4.747,1.709-1.519q12.341-6.075,18.609-15.191l-3.608-4.177a37.817,37.817,0,0,1-15,12.912V878.187a1.069,1.069,0,0,0,.759-1.139c-0.127-.38-0.635-0.57-1.519-0.57h0Zm-11.773,2.089h-4.937V891.1a26.75,26.75,0,0,1-2.089,9.685,35.836,35.836,0,0,1-7.405,10.064l4.557,3.228a29.906,29.906,0,0,0,8.165-11.583,36.447,36.447,0,0,0,2.469-13.1v-9.114a1.069,1.069,0,0,0,.759-1.139c-0.127-.38-0.635-0.57-1.519-0.57h0Zm82.525,17.849v-5.7H391.405v5.7h43.864Zm16.824-22.786h-4.937V913.7h5.7V893.378a43.724,43.724,0,0,1,7.785,2.658q3.418,1.523,7.406,3.8l2.848-4.557q-4.557-2.466-8.925-4.367a64.429,64.429,0,0,0-9.114-3.039V875.339a1.07,1.07,0,0,0,.759-1.14c-0.127-.379-0.635-0.569-1.519-0.569h0Zm51.383-2.849h-4.557v4.558h-15v4.937H490l2.088,5.7H479.551v4.938h43.864v-4.938H511.452l1.9-5.7h6.076v-4.937H504.236V872.3q1.518-1.327-.76-1.52h0Zm3.988,9.5-1.709,5.7H497.78l-1.9-5.7h11.583ZM516.009,893H487.716v22.787h5.317v-2.279h17.659v1.329h5.317V893Zm-5.317,4.937v2.659H493.033v-2.659h17.659Zm0,7.6v3.038H493.033v-3.038h17.659Zm39.8-11.773q0-13.29-13.1-22.407l-3.228,3.8q11.012,7.027,11.014,18.609t-11.014,18.609l3.228,3.8q13.1-9.114,13.1-22.406h0Zm25.368-6.456V879.9h-7.4V887.3h7.4Zm0,19.558v-7.406h-7.4v7.406h7.4Zm26.319-33.61q-0.762,4.557-7.6,4.937v4.178h6.267v29.622h4.937V873.25H602.18Zm53.852,8.165h-4.178v3.418h-7.405v-1.9q1.709-1.326-.38-1.519h-4.557v3.418h-6.836v4.557h6.836v7.6h4.937v-1.329h7.405v0.949h4.937V889.39h9.685v-4.557h-9.685v-1.9q1.518-1.326-.759-1.519h0Zm-8.355-10.254h-4.558V876.1h-16.14v23.356a26.712,26.712,0,0,1-1.329,7.6,14.182,14.182,0,0,1-3.038,5.127l4.177,3.8q5.7-7.028,5.507-18.23v-16.71h33.61V876.1h-17.47V872.87a2.137,2.137,0,0,0,.76-0.759q0.378-.948-1.519-0.95h0Zm4.177,18.229V891.1h-7.405V889.39h7.405Zm6.267,7.976-0.76.569H634.385v4.558h5.886A23.325,23.325,0,0,0,644.828,908a11.221,11.221,0,0,1-3.228,1.33,61.922,61.922,0,0,1-10.633,1.709l1.9,5.7a35.558,35.558,0,0,0,16.52-5.507,47.11,47.11,0,0,0,15.76,4.937l2.089-5.506a51.738,51.738,0,0,1-10.634-1.709,14.116,14.116,0,0,1-2.468-.95,48.808,48.808,0,0,0,6.266-6.266,0.773,0.773,0,0,0,.57-0.19,0.605,0.605,0,0,0,.38-0.569,0.773,0.773,0,0,0-.38-0.95Zm-12.153,5.127h7.026a24.89,24.89,0,0,1-3.8,3.038,24.81,24.81,0,0,1-3.228-3.038h0Z"/>
  <path id="C" class="cls-7" d="M414.7,393.3q-45.573,0-77.854,32.281-53.183,53.184-53.168,165.2,0,115.847,53.168,169,32.266,32.265,77.854,32.28,41.745,0,74.056-32.28Q530.5,718.04,532.427,634.46H479.258q0,62.662-28.483,91.146Q433.686,742.7,414.7,742.7q-24.7,0-43.674-18.989-34.181-34.179-34.18-132.921,0-94.929,34.18-129.123,18.958-18.96,43.674-18.989,18.959,0,36.078,17.09,28.484,28.483,26.585,81.651h53.168q0-74.055-41.775-115.831Q456.442,393.319,414.7,393.3h0Z"/>
</svg>
